<?xml version="1.0" encoding="utf-8"?>
<!-- Generator: Adobe Illustrator 18.1.1, SVG Export Plug-In . SVG Version: 6.00 Build 0)  -->
<!DOCTYPE svg PUBLIC "-//W3C//DTD SVG 1.1//EN" "http://www.w3.org/Graphics/SVG/1.1/DTD/svg11.dtd">
<svg version="1.1" xmlns="http://www.w3.org/2000/svg" xmlns:xlink="http://www.w3.org/1999/xlink" x="0px" y="0px"
	 viewBox="0 0 512 512" style="enable-background:new 0 0 512 512;" xml:space="preserve">
<g id="calendar">
	<path id="calendar-5-icon" d="M192.016,299.75h-64.422v-64.531h64.422V299.75z M289.359,235.219h-64.422v64.531h64.422V235.219z M386.703,235.219h-64.422v64.531h64.422V235.219z M192.016,329.281h-64.422v64.531h64.422V329.281z M289.359,329.281h-64.422 v64.531h64.422V329.281z M386.703,329.281h-64.422v64.531h64.422V329.281z M410.656,105.172c0,10.938-8.859,19.906-19.906,19.906 c-11.047,0-19.906-8.859-19.906-19.906V55.188c0-10.938,8.859-19.906,19.906-19.906c11.047,0,19.906,8.859,19.906,19.906V105.172z M142.141,55.078c0-10.938-8.859-19.906-19.906-19.906c-10.938,0-19.906,8.859-19.906,19.906v49.984 c0,10.938,8.859,19.906,19.906,19.906c10.938,0,19.906-8.859,19.906-19.906V55.078z M434.719,84.172v20.344 c0,24.172-19.688,43.859-43.859,43.859c-24.172,0-43.859-19.688-43.859-43.859V84.172H166.203v20.234 c0,24.172-19.688,43.859-43.859,43.859s-43.859-19.688-43.859-43.859V84.172H30.688v392.656h450.625V84.172L434.719,84.172 L434.719,84.172z M437.562,433.078H74.438V189.719h363.125V433.078z"/>
</g>
</svg>
