<?xml version="1.0" encoding="utf-8"?>
<!-- Generator: Adobe Illustrator 18.1.1, SVG Export Plug-In . SVG Version: 6.00 Build 0)  -->
<!DOCTYPE svg PUBLIC "-//W3C//DTD SVG 1.1//EN" "http://www.w3.org/Graphics/SVG/1.1/DTD/svg11.dtd">
<svg version="1.1" xmlns="http://www.w3.org/2000/svg" xmlns:xlink="http://www.w3.org/1999/xlink" x="0px" y="0px"
	 viewBox="0 0 512 512" style="enable-background:new 0 0 512 512;" xml:space="preserve">
<g id="calendar">
	<path id="calendar-5-icon" d="M183.301,305.709h-73.196v-73.32h73.196V305.709z M293.903,232.388h-73.196v73.32h73.196V232.388z
		 M404.505,232.388h-73.196v73.32h73.196V232.388z M183.301,339.262h-73.196v73.32h73.196V339.262z M293.903,339.262h-73.196v73.32
		h73.196V339.262z M404.505,339.262h-73.196v73.32h73.196V339.262z M431.72,84.629c0,12.427-10.066,22.617-22.617,22.617
		c-12.551,0-22.617-10.066-22.617-22.617V27.837c0-12.427,10.066-22.617,22.617-22.617c12.551,0,22.617,10.066,22.617,22.617V84.629
		z M126.633,27.713c0-12.427-10.066-22.617-22.617-22.617c-12.427,0-22.617,10.066-22.617,22.617v56.792
		c0,12.427,10.066,22.617,22.617,22.617c12.427,0,22.617-10.066,22.617-22.617V27.713z M459.06,60.769v23.115
		c0,27.464-22.369,49.833-49.833,49.833s-49.833-22.369-49.833-49.833V60.769H153.973v22.99c0,27.464-22.369,49.833-49.833,49.833
		s-49.833-22.369-49.833-49.833v-22.99H0v446.136h512V60.769L459.06,60.769L459.06,60.769z M462.291,457.196H49.709V180.691h412.583
		V457.196z"/>
</g>
<g id="Layer_1">
</g>
</svg>
