<?xml version="1.0" encoding="utf-8"?>
<!-- Generator: Adobe Illustrator 18.1.1, SVG Export Plug-In . SVG Version: 6.00 Build 0)  -->
<!DOCTYPE svg PUBLIC "-//W3C//DTD SVG 1.1//EN" "http://www.w3.org/Graphics/SVG/1.1/DTD/svg11.dtd">
<svg version="1.1" xmlns="http://www.w3.org/2000/svg" xmlns:xlink="http://www.w3.org/1999/xlink" x="0px" y="0px"
	 viewBox="0 0 512 512" style="enable-background:new 0 0 512 512;" xml:space="preserve">
<g id="feed-twitter">
	<path id="twitter-4-icon" d="M256,0C114.615,0,0,114.615,0,256s114.615,256,256,256s256-114.615,256-256S397.385,0,256,0z
		 M384.744,211.891c3.754,83.509-58.527,176.62-168.764,176.62c-33.53,0-64.741-9.831-91.014-26.676
		c31.499,3.712,62.939-5.026,87.902-24.588c-25.982-0.48-47.912-17.644-55.465-41.235c9.303,1.78,18.456,1.259,26.812-1.014
		c-28.553-5.738-48.266-31.462-47.622-58.971c8.003,4.449,17.162,7.12,26.895,7.428c-26.443-17.673-33.93-52.589-18.374-79.272
		c29.282,35.922,73.035,59.561,122.38,62.036c-8.66-37.14,19.513-72.907,57.839-72.907c17.077,0,32.51,7.21,43.339,18.75
		c13.526-2.663,26.231-7.604,37.705-14.408c-4.433,13.865-13.849,25.502-26.107,32.849c12.011-1.433,23.455-4.625,34.101-9.349
		C406.412,193.063,396.346,203.521,384.744,211.891z"/>
</g>
<g id="Layer_1">
</g>
</svg>
