<?xml version="1.0" encoding="utf-8"?>
<!-- Generator: Adobe Illustrator 18.1.1, SVG Export Plug-In . SVG Version: 6.00 Build 0)  -->
<!DOCTYPE svg PUBLIC "-//W3C//DTD SVG 1.1//EN" "http://www.w3.org/Graphics/SVG/1.1/DTD/svg11.dtd">
<svg version="1.1" xmlns="http://www.w3.org/2000/svg" xmlns:xlink="http://www.w3.org/1999/xlink" x="0px" y="0px"
	 viewBox="0 0 512 512" style="enable-background:new 0 0 512 512;" xml:space="preserve">
<g id="feed-facebook">
	<path id="facebook-circle-icon" d="M256,0C114.615,0,0,114.615,0,256s114.615,256,256,256s256-114.615,256-256S397.385,0,256,0z
		 M331.766,150.608c0,0-25.605,0-35.777,0c-12.629,0-15.261,5.173-15.261,18.241c0,10.874,0,31.57,0,31.57h51.037l-4.91,55.42
		h-46.127v165.564h-66.113V256.541h-34.381v-56.121h34.381c0,0,0-8.069,0-44.197c0-41.481,22.181-63.139,71.378-63.139
		c8.058,0,45.773,0,45.773,0v57.524H331.766z"/>
</g>
<g id="Layer_1">
</g>
</svg>
