<?xml version="1.0" encoding="utf-8"?>
<!-- Generator: Adobe Illustrator 18.1.1, SVG Export Plug-In . SVG Version: 6.00 Build 0)  -->
<!DOCTYPE svg PUBLIC "-//W3C//DTD SVG 1.1//EN" "http://www.w3.org/Graphics/SVG/1.1/DTD/svg11.dtd">
<svg version="1.1" xmlns="http://www.w3.org/2000/svg" xmlns:xlink="http://www.w3.org/1999/xlink" x="0px" y="0px"
	 viewBox="0 0 512 512" style="enable-background:new 0 0 512 512;" xml:space="preserve">
<g id="helmet">
	<g>
		<g>
			<path style="fill-rule:evenodd;clip-rule:evenodd;" d="M502.396,130.191c-3.423-4.665-3.17-12.377-5.599-18.197l-2.8-2.8
				c-1.4-6.065-2.8-12.132-4.199-18.197c-1.4-0.933-2.8-1.867-4.199-2.8c-0.467-1.866-0.933-3.733-1.4-5.599h-2.8v-2.8
				c-3.986-5.212-10.244-10.111-13.998-15.398c-1.697-2.389-1.136-4.578-2.8-6.999c-1.4-0.933-2.8-1.866-4.199-2.8v-4.199
				l-11.198-13.998c-5.602-4.182-16.717-1.303-23.797-4.199c-1.063-0.435-16.473-6.695-16.798-6.999
				c-2.591-2.425-2.588-7.748-5.599-9.799c-6.774-4.615-19.135-4.28-27.996-6.999c-12.568-3.857-73.437-8.191-83.988,0
				c-3.823-1.712-2.679-1.88-4.199-5.599c-6.162-1.386-10.871-2.948-19.597-2.8c-5.274,3.947-21.766,1.936-29.396,4.199
				c-16.263,4.824-34.151,8.735-48.993,13.998h-5.599C99.37,51.147,40.995,93.449,11.067,179.184
				c-0.933,6.065-1.867,12.132-2.8,18.197c-11.064,35.928-3.868,84.146,4.199,116.183c1.148,4.56-2.031,8.499-2.8,11.198
				c-1.402,4.927,1.344,18.782,2.8,22.397c4.383,10.882,15.06,18.544,25.196,23.797c2.333,0.467,4.666,0.933,6.999,1.4
				c5.156,3.584,4.247,11.962,6.999,18.197c2.581,5.849,7.758,10.608,11.198,15.398c12.33,17.166,27.09,30.539,36.395,47.593
				c2.799,6.998,5.599,13.999,8.399,20.997l-2.8,1.4c0.203,16.796,10.968,12.919,23.797,16.798
				c26.317,7.957,80.271,0.244,90.987-15.398c7.837,2.276,16.988,10.437,23.797,13.998c18.031,9.431,42.769,14.045,64.391,19.597
				c14.011,3.597,26.948-2.866,34.995-5.599h5.599c9.18-3.122,20.227-8.039,29.396-11.198c6.237-2.149,10.962-1.706,16.798-4.199
				c10.599-4.53,20.96-11.958,30.796-16.798c3.234-13.519,9.131-31.548,11.198-46.193v-1.4h-1.4
				c0.467-7.465,0.933-14.932,1.4-22.397c2.235-8.318,2.077-24.534,1.4-27.996c-4.258-21.783,7.972-44.634-5.599-57.392
				c1.99-6.55,7.664-11.003,9.799-18.197c2.067-6.965-1.564-14.299-2.8-18.197c-4.872-15.366-8.715-27.675-15.398-40.594
				c0.467-0.933,0.933-1.867,1.4-2.8c-0.933-0.467-1.867-0.933-2.8-1.4c-2.109-5.482,0.806-20.368,0-25.196
				c4.009-2.875,5.63-8.566,9.799-11.198c2.333-0.467,4.666-0.933,6.999-1.4c1.67-0.899,3.967-4.581,5.599-5.599
				c4.962-3.095,10.047-2.603,15.398-5.599c0.933-1.4,1.866-2.8,2.8-4.199c5.312-3.435,11.412-3.667,16.798-6.999
				c0.467-0.933,0.933-1.867,1.4-2.8c5.033-3.112,10.945-3.393,15.398-6.999c6.553-5.308,6.194-18.176,12.598-23.797
				C508.899,129.917,506.456,135.723,502.396,130.191z M411.409,436.747c0.291,2.533-1.547,16.344-4.199,19.597
				c-5.808,8.051-19.682,9.732-29.396,13.998c-12.124,5.325-26.375,11.603-40.594,15.398c-11.997,3.202-19.354-6.146-25.196-9.799
				c-4.308-2.694-8.303-2.888-12.598-5.599c-5.481-3.46-11.221-9.108-16.798-12.598c-1.866-0.467-3.733-0.933-5.599-1.4
				c-1.646-1.036-3.918-4.674-5.599-5.599h-4.199c-4.417-2.433-10.348-9.144-15.398-11.198c1.091-9.556,2.193-11.297,4.199-20.997
				c0.797-3.853-5.579-31.626-6.999-33.595h-2.8c0.467-1.4,0.933-2.8,1.4-4.199c-0.933-0.467-1.867-0.933-2.8-1.4v-4.199
				c-1.832-3.958-6.503-7.664-8.399-11.198c-2.782-5.189-5.33-15.729-6.999-20.997c-3.02-9.531-3.545-38.923,1.4-44.794
				c2.522-8.575,12.3-10.092,19.597-13.998c14.908-7.981,25.483-19.836,46.193-18.197c3.039,3.289,7.491,4.288,11.198,6.999
				c4.666,5.132,9.332,10.266,13.998,15.398h2.8c18.964,14.401,39.623,59.443,78.389,43.394c3.483,7.554,6.086,17.947,9.799,25.196
				h4.199c0.093,30.542-0.475,54.134-6.999,76.989C409.398,436.089,411.409,436.747,411.409,436.747z"/>
		</g>
	</g>
</g>
<g id="Layer_1">
</g>
</svg>
