<?xml version="1.0" encoding="utf-8"?>
<!-- Generator: Adobe Illustrator 18.1.1, SVG Export Plug-In . SVG Version: 6.00 Build 0)  -->
<!DOCTYPE svg PUBLIC "-//W3C//DTD SVG 1.1//EN" "http://www.w3.org/Graphics/SVG/1.1/DTD/svg11.dtd">
<svg version="1.1" xmlns="http://www.w3.org/2000/svg" xmlns:xlink="http://www.w3.org/1999/xlink" x="0px" y="0px"
	 viewBox="0 0 512 512" style="enable-background:new 0 0 512 512;" xml:space="preserve">
<g id="helmet">
	<g>
		<g>
			<path style="fill-rule:evenodd;clip-rule:evenodd;" d="M444,153.84c-2.446-3.333-2.265-8.842-4-13l-2-2c-1-4.333-2-8.667-3-13
				c-1-0.667-2-1.333-3-2c-0.333-1.333-0.667-2.667-1-4h-2v-2c-2.848-3.724-7.318-7.223-10-11c-1.212-1.707-0.811-3.271-2-5
				c-1-0.667-2-1.333-3-2v-3l-8-10c-4.002-2.988-11.943-0.931-17-3c-0.759-0.311-11.768-4.783-12-5c-1.851-1.732-1.849-5.535-4-7
				c-4.84-3.297-13.67-3.057-20-5c-8.978-2.755-52.463-5.852-60,0c-2.731-1.223-1.914-1.343-3-4c-4.402-0.99-7.766-2.106-14-2
				c-3.768,2.82-15.55,1.383-21,3c-11.618,3.446-24.397,6.24-35,10h-4c-59.917,23.532-101.619,53.752-123,115
				c-0.667,4.333-1.333,8.667-2,13c-7.904,25.667-2.763,60.113,3,83c0.82,3.258-1.451,6.072-2,8c-1.002,3.52,0.96,13.417,2,16
				c3.131,7.774,10.759,13.248,18,17c1.667,0.333,3.333,0.667,5,1c3.683,2.56,3.034,8.545,5,13c1.844,4.178,5.542,7.578,8,11
				c8.809,12.263,19.353,21.817,26,34c2,5,4,10,6,15c-0.667,0.333-1.333,0.667-2,1c0.145,11.999,7.836,9.229,17,12
				c18.8,5.684,57.345,0.174,65-11c5.599,1.626,12.136,7.456,17,10c12.881,6.737,30.554,10.034,46,14c10.009,2.57,19.251-2.047,25-4
				h4c6.558-2.231,14.45-5.743,21-8c4.456-1.535,7.831-1.218,12-3c7.572-3.236,14.974-8.543,22-12c2.31-9.658,6.523-22.538,8-33v-1
				h-1c0.333-5.333,0.667-10.667,1-16c1.597-5.942,1.484-17.527,1-20c-3.042-15.562,5.695-31.886-4-41c1.421-4.68,5.475-7.86,7-13
				c1.476-4.976-1.117-10.215-2-13c-3.48-10.977-6.226-19.771-11-29c0.333-0.667,0.667-1.333,1-2l-2-1
				c-1.507-3.916,0.576-14.551,0-18c2.864-2.054,4.022-6.12,7-8c1.667-0.333,3.333-0.667,5-1c1.193-0.643,2.834-3.273,4-4
				c3.545-2.211,7.177-1.86,11-4c0.667-1,1.333-2,2-3c3.795-2.454,8.152-2.62,12-5c0.333-0.667,0.667-1.333,1-2
				c3.596-2.223,7.819-2.424,11-5c4.682-3.792,4.425-12.985,9-17C448.645,153.645,446.9,157.792,444,153.84z M379,372.84
				c0.208,1.809-1.105,11.676-3,14c-4.149,5.752-14.061,6.952-21,10c-8.661,3.804-18.842,8.289-29,11c-8.571,2.287-13.826-4.39-18-7
				c-3.078-1.924-5.932-2.063-9-4c-3.915-2.472-8.016-6.506-12-9c-1.333-0.333-2.667-0.667-4-1c-1.176-0.74-2.799-3.339-4-4h-3
				c-3.156-1.738-7.392-6.532-11-8c0.78-6.827,1.567-8.07,3-15c0.569-2.752-3.985-22.593-5-24h-2c0.333-1,0.667-2,1-3l-2-1v-3
				c-1.309-2.828-4.646-5.475-6-8c-1.988-3.707-3.807-11.237-5-15c-2.158-6.809-2.533-27.806,1-32c1.802-6.126,8.787-7.209,14-10
				c10.65-5.701,18.205-14.17,33-13c2.171,2.349,5.352,3.063,8,5c3.333,3.666,6.667,7.334,10,11h2
				c13.547,10.288,28.306,42.465,56,31c2.488,5.396,4.348,12.821,7,18h3c0.066,21.819-0.339,38.673-5,55
				C377.563,372.37,379,372.84,379,372.84z"/>
		</g>
	</g>
</g>
</svg>
