<?xml version="1.0" encoding="utf-8"?>
<!-- Generator: Adobe Illustrator 18.1.1, SVG Export Plug-In . SVG Version: 6.00 Build 0)  -->
<!DOCTYPE svg PUBLIC "-//W3C//DTD SVG 1.1//EN" "http://www.w3.org/Graphics/SVG/1.1/DTD/svg11.dtd">
<svg version="1.1" xmlns="http://www.w3.org/2000/svg" xmlns:xlink="http://www.w3.org/1999/xlink" x="0px" y="0px"
	 viewBox="0 0 512 512" style="enable-background:new 0 0 512 512;" xml:space="preserve">
<g id="instagram">
	<path d="M452.938,0H59.067C26.45,0,0,26.439,0,59.068V452.9C0,485.543,26.45,512,59.067,512h393.872
		c32.621,0,59.062-26.457,59.061-59.1V59.068C512,26.439,485.56,0,452.938,0z M256.001,157.537c54.381,0,98.471,44.07,98.471,98.454
		c0,54.375-44.09,98.471-98.471,98.471c-54.385,0-98.466-44.096-98.466-98.471C157.535,201.609,201.615,157.537,256.001,157.537z
		 M453,433.225c0,10.862-8.882,19.775-19.776,19.775H78.776C67.885,453,59,444.088,59,433.225V217h44.642
		c-3.247,12-5.172,25.576-5.172,39.192c0,87.018,70.529,157.443,157.531,157.443s157.529-70.374,157.529-157.392
		c0-13.617-1.919-27.243-5.165-39.243H453V433.225z M453,137.845C453,148.71,444.119,158,433.226,158h-59.062
		C363.283,158,354,148.71,354,137.845V78.76C354,67.886,363.283,59,374.164,59h59.062C444.118,59,453,67.886,453,78.76V137.845z"/>
</g>
</svg>
