<?xml version="1.0" encoding="utf-8"?>
<!-- Generator: Adobe Illustrator 18.1.1, SVG Export Plug-In . SVG Version: 6.00 Build 0)  -->
<!DOCTYPE svg PUBLIC "-//W3C//DTD SVG 1.1//EN" "http://www.w3.org/Graphics/SVG/1.1/DTD/svg11.dtd">
<svg version="1.1" xmlns="http://www.w3.org/2000/svg" xmlns:xlink="http://www.w3.org/1999/xlink" x="0px" y="0px"
	 viewBox="0 0 512 512" style="enable-background:new 0 0 512 512;" xml:space="preserve">
<g id="skate">
	<g>
		<g>
			<path style="fill-rule:evenodd;clip-rule:evenodd;" d="M443.201,374.578c1.434-11.451,2.869-22.905,4.303-34.355
				c4.303-1.431,8.607-2.863,12.91-4.295c4.926-7.456,3.075-38.932,0-42.944c-1.493-40.963-28.644-36.955-55.945-51.533
				c-34.909-18.641-84.156-37.999-107.586-68.711c-15.633-20.492-26.387-67.954-30.124-90.183
				c-1.313-7.809,5.476-30.493,4.303-34.356c-4.092-13.484-23.48-38.25-38.731-42.944c-9.612-7.639-39.111-4.869-55.945-4.294
				c-8.101,6.888-18.903,3.751-30.124,8.589c-19.633,8.464-41.209,24.329-60.249,34.356c-9.088,1.913-2.573,3.186-8.607-4.294
				h-8.607c4.771,7.754,9.36,12.497,17.214,17.178c-1.434,7.157-2.869,14.315-4.303,21.472
				c-21.288-4.547-39.983-15.359-43.035-38.65h-4.303C36.115,68.172,57.99,76.918,77.406,86.85
				c-1.307,41.246-13.838,73.711-21.517,107.361c-3.37,14.767,7.108,39.808,8.607,51.533c-1.434,7.157-2.869,14.316-4.303,21.472
				c5.007,24.018,17.33,56.112,34.428,68.711c5.996,12.191-0.687,4.844,12.91,4.295v4.294h4.303
				c-7.487,19.958-22.261,7.554-38.731,17.178c-6.035,3.526-25.753,15.521-30.124,21.472c-5.003,6.811-2.622,11.798-8.607,17.178
				c0.892,51.347,21.156,46.051,47.338,68.711c23.683-2.921,46.544-16.315,60.249-30.061c1.434-4.294,2.869-8.589,4.303-12.883
				h25.821c22.565-8.657,34.046-28.074,43.035-51.533c24.289,1.457,52.609,5.604,73.159,12.883
				c1.434,7.157,2.869,14.316,4.304,21.472c-5.68,18.781-40.901,23.001-30.124,60.122c3.541,12.195,15.39,23.698,21.517,34.355
				c9.528,2.341,11.786,2.889,17.214,8.589c37.888-0.549,54.612-11.233,73.159-30.061c1.434-4.294,2.869-8.589,4.303-12.883
				c8.567-6.293,34.699-4.442,47.338-8.589c19.181-6.294,35.717-20.707,51.641-30.061
				C474.925,407.998,458.932,384.382,443.201,374.578z M283.972,370.283c-18.645-0.87-52.506-3.256-64.552-12.883
				c-12.465-3.999-12.279-6.573-17.214-17.178c21.515,2.862,43.037,5.726,64.552,8.589c4.534,5.164,11.021,9.478,17.214,12.883
				V370.283z M339.918,378.872v4.294c-5.471,2.661-2.533-2.221-4.303-4.294c-7.148-5.352-5.535-2.534-8.607-12.883
				c6.576,2.462,7.069,3.254,17.214,4.294C341.476,378.448,344.214,374.072,339.918,378.872z M47.282,31.022
				c3.262,4.056,5.345,4.532,8.607,8.589h12.91v-4.294C61.628,33.885,54.454,32.453,47.282,31.022z"/>
		</g>
	</g>
</g>
<g id="Layer_1">
</g>
</svg>
