<?xml version="1.0" encoding="utf-8"?>
<!-- Generator: Adobe Illustrator 18.1.1, SVG Export Plug-In . SVG Version: 6.00 Build 0)  -->
<!DOCTYPE svg PUBLIC "-//W3C//DTD SVG 1.1//EN" "http://www.w3.org/Graphics/SVG/1.1/DTD/svg11.dtd">
<svg version="1.1" xmlns="http://www.w3.org/2000/svg" xmlns:xlink="http://www.w3.org/1999/xlink" x="0px" y="0px"
	 viewBox="0 0 512 512" style="enable-background:new 0 0 512 512;" xml:space="preserve">
	<g id="skate">
		<path style="fill-rule:evenodd;clip-rule:evenodd;" d="M423.234,326.75c1.12-8.945,2.241-17.892,3.362-26.837	3.361-1.118,6.724-2.237,10.085-3.355c3.848-5.824,2.402-30.413,0-33.547c-1.166-31.998-22.375-28.868-43.702-40.256	c-27.27-14.562-65.74-29.683-84.043-53.675c-12.212-16.008-20.613-53.083-23.532-70.448c-1.026-6.1,4.277-23.82,3.362-26.837	c-3.196-10.533-18.342-29.88-30.255-33.547c-7.508-5.967-30.552-3.804-43.702-3.355c-6.328,5.38-14.766,2.93-23.532,6.709	c-15.336,6.612-32.191,19.005-47.064,26.837c-7.099,1.494-2.01,2.488-6.723-3.355h-6.724c3.727,6.057,7.312,9.762,13.447,13.419	c-1.12,5.591-2.241,11.183-3.362,16.773c-16.629-3.552-31.233-11.998-33.617-30.192h-3.362	c1.361,22.311,18.45,29.143,33.617,36.901c-1.021,32.22-10.81,57.58-16.809,83.867c-2.632,11.535,5.552,31.097,6.723,40.256	c-1.12,5.591-2.241,11.183-3.362,16.773c3.911,18.762,13.537,43.832,26.894,53.675c4.684,9.523-0.537,3.784,10.085,3.355v3.355	h3.362c-5.849,15.591-17.389,5.901-30.255,13.419c-4.714,2.755-20.117,12.125-23.532,16.773	c-3.909,5.321-2.048,9.216-6.723,13.419c0.697,40.11,16.527,35.973,36.979,53.674c18.5-2.282,36.359-12.745,47.064-23.483	c1.12-3.354,2.241-6.71,3.362-10.064h20.17c17.627-6.763,26.596-21.93,33.617-40.256c18.974,1.138,41.096,4.378,57.149,10.064	c1.12,5.591,2.241,11.183,3.362,16.773c-4.437,14.671-31.951,17.967-23.532,46.965c2.766,9.527,12.022,18.512,16.809,26.837	c7.443,1.829,9.207,2.256,13.447,6.709c29.597-0.429,42.661-8.775,57.149-23.483c1.12-3.354,2.241-6.71,3.362-10.064	c6.692-4.916,27.105-3.47,36.979-6.709c14.984-4.916,27.901-16.176,40.34-23.483C448.016,352.857,435.523,334.408,423.234,326.75	z M298.851,323.395c-14.565-0.68-41.016-2.543-50.426-10.064c-9.738-3.124-9.592-5.135-13.447-13.419	c16.807,2.236,33.619,4.473,50.426,6.709c3.542,4.034,8.61,7.404,13.447,10.064V323.395z M342.553,330.105v3.355	c-4.273,2.079-1.978-1.735-3.362-3.355c-5.584-4.181-4.324-1.98-6.724-10.064c5.137,1.924,5.522,2.542,13.447,3.355	C343.771,329.774,345.91,326.355,342.553,330.105z M113.957,58.377c2.548,3.169,4.175,3.54,6.723,6.709h10.085v-3.355	C125.164,60.614,119.56,59.495,113.957,58.377z"/>	
	</g>
</svg>
