<?xml version="1.0" encoding="utf-8"?>
<!-- Generator: Adobe Illustrator 18.1.1, SVG Export Plug-In . SVG Version: 6.00 Build 0)  -->
<!DOCTYPE svg PUBLIC "-//W3C//DTD SVG 1.1//EN" "http://www.w3.org/Graphics/SVG/1.1/DTD/svg11.dtd">
<svg version="1.1" xmlns="http://www.w3.org/2000/svg" xmlns:xlink="http://www.w3.org/1999/xlink" x="0px" y="0px"
	 viewBox="0 0 512 512" style="enable-background:new 0 0 512 512;" xml:space="preserve">
<g id="ticket">
	<path d="M42.672,329.706c-3.663,4.942-2.627,11.918,2.315,15.581l46.269,34.299c19.322-26.065,56.115-31.531,82.179-12.209
		c26.065,19.322,31.531,56.115,12.209,82.179l46.269,34.299c4.942,3.663,11.918,2.627,15.581-2.315l52.915-71.381L95.587,258.325
		L42.672,329.706z"/>
	<path d="M467.013,166.712l-46.269-34.299c-19.322,26.065-56.115,31.531-82.179,12.209C312.5,125.3,307.034,88.507,326.356,62.443
		l-46.269-34.299c-4.942-3.663-11.918-2.627-15.581,2.315l-52.915,71.381l204.822,151.835l52.915-71.381
		C472.992,177.352,471.955,170.376,467.013,166.712z"/>		
		<rect x="128.518" y="166.827" transform="matrix(-0.8033 -0.5955 0.5955 -0.8033 309.2025 614.1082)" width="254.963" height="178.345"/>
</g>
</svg>
