<?xml version="1.0" encoding="utf-8"?>
<!-- Generator: Adobe Illustrator 18.1.1, SVG Export Plug-In . SVG Version: 6.00 Build 0)  -->
<!DOCTYPE svg PUBLIC "-//W3C//DTD SVG 1.1//EN" "http://www.w3.org/Graphics/SVG/1.1/DTD/svg11.dtd">
<svg version="1.1" xmlns="http://www.w3.org/2000/svg" xmlns:xlink="http://www.w3.org/1999/xlink" x="0px" y="0px"
	 viewBox="0 0 512 512" style="enable-background:new 0 0 512 512;" xml:space="preserve">
<g id="ticket">
	<g>
		<path d="M18.606,338.021c-4.077,5.499-2.923,13.262,2.576,17.339l51.489,38.169c21.501-29.005,62.445-35.088,91.45-13.586
			c29.005,21.501,35.088,62.445,13.586,91.45l51.489,38.169c5.499,4.077,13.262,2.923,17.339-2.576l58.884-79.434L77.491,258.588
			L18.606,338.021z"/>
		<path d="M490.818,156.64l-51.489-38.169c-21.501,29.005-62.445,35.088-91.45,13.586c-29.005-21.502-35.088-62.445-13.586-91.45
			L282.804,2.438c-5.499-4.077-13.262-2.923-17.339,2.576l-58.884,79.434L434.51,253.412l58.884-79.434
			C497.471,168.479,496.317,160.716,490.818,156.64z"/>
		
			<rect x="114.137" y="156.768" transform="matrix(-0.8033 -0.5955 0.5955 -0.8033 309.2025 614.1082)" width="283.726" height="198.464"/>
	</g>
</g>
<g id="Layer_1">
</g>
</svg>
