<?xml version="1.0" encoding="utf-8"?>
<!-- Generator: Adobe Illustrator 18.0.0, SVG Export Plug-In . SVG Version: 6.00 Build 0)  -->
<!DOCTYPE svg PUBLIC "-//W3C//DTD SVG 1.1//EN" "http://www.w3.org/Graphics/SVG/1.1/DTD/svg11.dtd">
<svg version="1.1" xmlns="http://www.w3.org/2000/svg" xmlns:xlink="http://www.w3.org/1999/xlink" x="0px" y="0px"
	 viewBox="0 0 521.3 92.3" enable-background="new 0 0 521.3 92.3" xml:space="preserve">
<g id="Layer_2" opacity="0.5">
	<g>
		<g>
			<path fill="#0A565D" d="M266.2,42.1c-5.1,0-6.7-1-6.7-5.4V24.7c0-4.3,1.6-5.4,6.7-5.4h14.2v5.8h-12.3c-1.7,0-2,0.4-2,1.6v8.1
				c0,1.1,0.4,1.6,2,1.6h5.9v-2.8h-5.8v-5.7h12.3v14.3H266.2z"/>
			<path fill="#0A565D" d="M297.2,42.1v-6.2c0-1-0.3-1.6-1.6-1.6h-6v7.8h-6.7V19.3h14.8c5,0,6.1,1.3,6.1,5.4v3.6
				c0,2-0.8,3.1-1.9,3.5c1,0.3,2,1.4,2,3.3v7H297.2z M297.2,26.4c0-0.9-0.2-1.3-1.3-1.3h-6.4v4h6.4c1.2,0,1.3-0.5,1.3-1.6V26.4z"/>
			<path fill="#0A565D" d="M320.6,42.1l-1-3.3h-6.3l-1,3.3H305l7.1-22.8h8.5l7.1,22.8H320.6z M316.5,25.9l-1.9,7.3h3.8L316.5,25.9z"
				/>
			<path fill="#0A565D" d="M343.3,42.1l-7.7-10.9v10.9h-6.3V19.3h6.9l7.4,11.6V19.3h6.4v22.8H343.3z"/>
			<path fill="#0A565D" d="M352.4,42.1V19.3h6.7v22.8H352.4z"/>
			<path fill="#0A565D" d="M367.1,42.1v-17h-6.3v-5.8h19.3v5.8h-6.3v17H367.1z"/>
			<path fill="#0A565D" d="M381.9,42.1V19.3h20.7v5.8h-14v2.9h6.8v5.4h-6.8v2.9h14v5.8H381.9z"/>
			<path fill="#0A565D" d="M413.1,42.1v-5.8h13.8c0.7,0,0.9-0.4,0.9-1.5c0-0.9-0.2-1.3-0.9-1.3h-8.7c-3.3,0-5-1.8-5-4.8v-4.1
				c0-3.9,1.1-5.4,5.8-5.4h13.4V25h-12.1c-0.7,0-0.8,0.4-0.8,1.4c0,0.9,0.3,1.4,1,1.4h8.6c3.6,0,5.1,2,5.1,5.4v3.4
				c0,3.7-1.4,5.4-5.5,5.4H413.1z"/>
			<path fill="#0A565D" d="M441.6,42.1v-17h-6.3v-5.8h19.3v5.8h-6.3v17H441.6z"/>
			<path fill="#0A565D" d="M467.7,42.1l-1-3.3h-6.3l-1,3.3h-7.3l7.1-22.8h8.5l7.1,22.8H467.7z M463.6,25.9l-1.9,7.3h3.8L463.6,25.9z
				"/>
			<path fill="#0A565D" d="M478.7,42.1v-17h-6.3v-5.8h19.3v5.8h-6.3v17H478.7z"/>
			<path fill="#0A565D" d="M493.4,42.1V19.3h20.7v5.8h-14v2.9h6.8v5.4h-6.8v2.9h14v5.8H493.4z"/>
		</g>
	</g>
	<g>
		<g>
			<path fill="#0A565D" d="M273,78v-6.4c0-1.1-0.3-1.6-1.7-1.6h-6.2v8h-6.9V54.4h15.3c5.1,0,6.3,1.4,6.3,5.6v3.7
				c0,2.1-0.8,3.2-1.9,3.6c1.1,0.3,2.1,1.5,2.1,3.4V78H273z M273,61.8c0-0.9-0.2-1.4-1.3-1.4h-6.6v4.1h6.6c1.2,0,1.3-0.5,1.3-1.6
				V61.8z"/>
			<path fill="#0A565D" d="M288.9,78c-5.2,0-6.9-1-6.9-5.6V60c0-4.7,1.8-5.6,6.9-5.6h9.2c5.2,0,7,0.9,7,5.6v12.3
				c0,4.7-1.8,5.6-7,5.6H288.9z M298.2,62c0-1.3-0.4-1.6-2-1.6h-5.2c-1.5,0-2,0.3-2,1.6v8.4c0,1.2,0.4,1.6,2,1.6h5.2
				c1.6,0,2-0.4,2-1.6V62z"/>
			<path fill="#0A565D" d="M307.5,78V54.4h7V72h9.4v6H307.5z"/>
			<path fill="#0A565D" d="M325.6,78V54.4h7V72h9.4v6H325.6z"/>
			<path fill="#0A565D" d="M343.7,78V54.4h21.5v6h-14.5v3h7.1V69h-7.1v3h14.5v6H343.7z"/>
			<path fill="#0A565D" d="M382.2,78v-6.4c0-1.1-0.3-1.6-1.7-1.6h-6.2v8h-6.9V54.4h15.3c5.1,0,6.3,1.4,6.3,5.6v3.7
				c0,2.1-0.8,3.2-1.9,3.6c1.1,0.3,2.1,1.5,2.1,3.4V78H382.2z M382.2,61.8c0-0.9-0.2-1.4-1.3-1.4h-6.6v4.1h6.6
				c1.2,0,1.3-0.5,1.3-1.6V61.8z"/>
			<path fill="#0A565D" d="M400.4,78V54.4h14.7c5.1,0,7,1,7,5.6v12.3c0,4.6-1.7,5.6-7,5.6H400.4z M415.2,62c0-1.1-0.4-1.6-2-1.6
				h-5.9V72h5.9c1.3,0,2-0.5,2-1.6V62z"/>
			<path fill="#0A565D" d="M424.6,78V54.4h21.5v6h-14.5v3h7.1V69h-7.1v3h14.5v6H424.6z"/>
			<path fill="#0A565D" d="M463.1,78v-6.4c0-1.1-0.3-1.6-1.7-1.6h-6.2v8h-6.9V54.4h15.3c5.1,0,6.3,1.4,6.3,5.6v3.7
				c0,2.1-0.8,3.2-1.9,3.6c1.1,0.3,2.1,1.5,2.1,3.4V78H463.1z M463.1,61.8c0-0.9-0.2-1.4-1.3-1.4h-6.6v4.1h6.6
				c1.2,0,1.3-0.5,1.3-1.6V61.8z"/>
			<path fill="#0A565D" d="M493.9,72.3c0,4.7-1.8,5.6-7,5.6h-14.8V54.4H487c5.1,0,6.8,1,6.8,5.6v2.9c0,1.9-0.9,2.9-1.9,3.2
				c1.1,0.3,2.1,1.4,2.1,3.5V72.3z M479.2,60.4v3.1h6.8c1,0,1.2-0.5,1.2-1.6c0-1.1-0.3-1.5-1.2-1.5H479.2z M479.2,68.9V72h6.9
				c0.8,0,1.1-0.5,1.1-1.5c0-1.2-0.3-1.5-1.1-1.5H479.2z"/>
			<path fill="#0A565D" d="M501.6,78V68L494,54.4h8.6l2.8,6.1l2.8-6.1h8.1L508.5,68v10H501.6z"/>
		</g>
	</g>
	<g>
		<rect x="252.1" y="87.9" fill="#0A565D" width="268.5" height="2.5"/>
	</g>
	<g>
		<rect x="252.1" y="6.9" fill="#0A565D" width="268.5" height="2.5"/>
	</g>
	<g>
		<path fill="#0A565D" d="M30.9,4h-2.4C5.1,4,0,8.1,0,25.3L0,71c0,17.2,5.1,21.3,28.5,21.3h2.4c23.5,0,28.5-4.1,28.5-21.3V43.2H28.9
			v16.3h6.4v12.7c0,3.4-1.5,3.7-4.5,3.7h-2.4c-3,0-4.5-0.4-4.5-3.7V24.3c0-3.4,1.6-4,4.5-4h2.4c2.8,0,4.5,0.6,4.5,4v10.5h24v-9.5
			C59.4,8.1,54.3,4,30.9,4z"/>
		<path fill="#0A565D" d="M105.7,81.6c-0.5-1-1-2-1.4-3.1c-0.1-0.3-0.1-0.8,0-1.1c0.3-1.1,0.7-2.2,1.1-3.3c0.6-1.7,1-3.4,0.9-5.4
			c-0.1-2.3,0.6-4.6,0.9-6.9c0.2-1.4,0.8-2.7,1.5-4c2-3.9,3.9-7.8,5.7-11.8c0.2-0.6,0.4-1.2,0.4-1.8c-2.4-1.4-5.5-2.3-9-3.4
			l-9.1-2.7c-8.6-2.6-9.9-3.1-9.9-8.7v-5.2c0-3.4,1.6-3.9,4.5-3.9h1.3c3,0,4.5,0.5,4.5,3.9v10h24v-8.9c0-17.2-5-21.3-28.5-21.3h-1.3
			C67.8,4,62.8,8.1,62.8,25.3v10.4c0,12.8,6.8,15.2,16.8,18.6l10.1,3c5.8,2.1,7.9,2.1,7.9,6.9v8c0,3.2-1.5,3.9-4.5,3.9h-1.8
			c-3,0-4.5-0.6-4.5-3.9V62h-24v9c0,17.2,5,21.3,28.5,21.3h1.8c17.2,0,24.5-2.2,27.2-10.2c-4.7-0.1-9.4-0.2-14.1-0.4
			C106,81.7,105.9,81.7,105.7,81.6z"/>
		<path fill="#0A565D" d="M154.8,4.5h-30.9v30.2c1.1-0.9,1.9-3.4,1.2-4.7c-1-1.9-1-3.6,0.4-5.3c1-1.2,0.5-2.6,0.4-3.5
			c1.1-2.3,2.1-4.2,3-6c-0.2-0.5-0.4-0.9-0.5-1.2c0.3-0.2,0.5-0.4,0.8-0.5c0.5-0.4,1.1-0.7,1.6-1.1c0.1-0.1,0.2-0.1,0.2-0.2
			c0.6,0.4,1.3,0.8,2,1.2c0.6-0.3,1.2-0.5,2-0.9c0.1,0.4,0.2,0.6,0.2,0.9c0.3,4.9,0.5,9.8,0.8,14.7c0.4,6.3,0.8,12.6,1.1,18.9
			c0.3,4.4,0.5,8.9,0.7,13.3c0.1,1.1-0.1,2.1,0,3.2c0.2,2,1.8,3,3.2,4.3c0,0.8-0.2,1.8,0.1,2.6c0.2,0.7,0.9,1.4,1.4,2
			c0.7,2.3-0.9,3.9-2,5.6c-1.7-0.6-4.5-0.2-5.3,1.4c-1.9,0.1-2.3,0.6-2.4,2c-0.7,0.4-1.4,0.7-2.1,0.8c-1.1,0.2-2.2,0.2-3.3,0.2
			c-1.2,0-2.4-0.1-3.6-0.1v9.6h23.8V59.3h7c2.8,0.1,4.3,2.6,4.3,5.7v26.8h23.8V67.2c0-11.9-3-15.5-13.4-16.6
			c9.9-0.6,13.4-3.5,13.4-15.5v-9.9C182.7,8.5,177.8,4.5,154.8,4.5z M159,40.3c0,3.1-1.5,3.6-4.2,3.6h-7.1V20.7h7
			c2.7,0,4.3,0.4,4.3,3.5V40.3z"/>
		<path fill="#0A565D" d="M244.5,25.6c0-17-4.9-21.1-28.1-21.1h-30.7v87.3h30.7c23.2,0,28.1-4.1,28.1-21.1L244.5,25.6z M220.9,71.7
			c0,3.2-1.6,3.9-4.5,3.9h-7V20.7h7c2.8,0,4.5,0.5,4.5,3.6V71.7z"/>
		<polygon fill="#0A565D" points="129.5,66.2 135.6,60.3 127.2,59 123.4,51.4 119.7,59 111.2,60.3 117.3,66.2 115.9,74.6
			123.4,70.6 130.9,74.6 		"/>
	</g>
</g>
<g id="Layer_1">
	<g>
		<g>
			<path fill="#FFFFFF" d="M267,38.1c-5.1,0-6.7-1-6.7-5.4V20.7c0-4.3,1.6-5.4,6.7-5.4h14.2v5.8h-12.3c-1.7,0-2,0.4-2,1.6v8.1
				c0,1.1,0.4,1.6,2,1.6h5.9v-2.8h-5.8v-5.7h12.3v14.3H267z"/>
			<path fill="#FFFFFF" d="M298,38.1v-6.2c0-1-0.3-1.6-1.6-1.6h-6v7.8h-6.7V15.3h14.8c5,0,6.1,1.3,6.1,5.4v3.6c0,2-0.8,3.1-1.9,3.5
				c1,0.3,2,1.4,2,3.3v7H298z M298,22.4c0-0.9-0.2-1.3-1.3-1.3h-6.4v4h6.4c1.2,0,1.3-0.5,1.3-1.6V22.4z"/>
			<path fill="#FFFFFF" d="M321.4,38.1l-1-3.3h-6.3l-1,3.3h-7.3l7.1-22.8h8.5l7.1,22.8H321.4z M317.2,21.9l-1.9,7.3h3.8L317.2,21.9z
				"/>
			<path fill="#FFFFFF" d="M344,38.1l-7.7-10.9v10.9h-6.3V15.3h6.9l7.4,11.6V15.3h6.4v22.8H344z"/>
			<path fill="#FFFFFF" d="M353.1,38.1V15.3h6.7v22.8H353.1z"/>
			<path fill="#FFFFFF" d="M367.9,38.1v-17h-6.3v-5.8h19.3v5.8h-6.3v17H367.9z"/>
			<path fill="#FFFFFF" d="M382.6,38.1V15.3h20.7v5.8h-14v2.9h6.8v5.4h-6.8v2.9h14v5.8H382.6z"/>
			<path fill="#FFFFFF" d="M413.8,38.1v-5.8h13.8c0.7,0,0.9-0.4,0.9-1.5c0-0.9-0.2-1.3-0.9-1.3h-8.7c-3.3,0-5-1.8-5-4.8v-4.1
				c0-3.9,1.1-5.4,5.8-5.4H433V21h-12.1c-0.7,0-0.8,0.4-0.8,1.4c0,0.9,0.3,1.4,1,1.4h8.6c3.6,0,5.1,2,5.1,5.4v3.4
				c0,3.7-1.4,5.4-5.5,5.4H413.8z"/>
			<path fill="#FFFFFF" d="M442.4,38.1v-17H436v-5.8h19.3v5.8H449v17H442.4z"/>
			<path fill="#FFFFFF" d="M468.5,38.1l-1-3.3h-6.3l-1,3.3h-7.3l7.1-22.8h8.5l7.1,22.8H468.5z M464.3,21.9l-1.9,7.3h3.8L464.3,21.9z
				"/>
			<path fill="#FFFFFF" d="M479.4,38.1v-17h-6.3v-5.8h19.3v5.8h-6.3v17H479.4z"/>
			<path fill="#FFFFFF" d="M494.2,38.1V15.3h20.7v5.8h-14v2.9h6.8v5.4h-6.8v2.9h14v5.8H494.2z"/>
		</g>
	</g>
	<g>
		<g>
			<path fill="#FFFFFF" d="M273.7,74v-6.4c0-1.1-0.3-1.6-1.7-1.6h-6.2v8h-6.9V50.4h15.3c5.1,0,6.3,1.4,6.3,5.6v3.7
				c0,2.1-0.8,3.2-1.9,3.6c1.1,0.3,2.1,1.5,2.1,3.4V74H273.7z M273.7,57.8c0-0.9-0.2-1.4-1.3-1.4h-6.6v4.1h6.6
				c1.2,0,1.3-0.5,1.3-1.6V57.8z"/>
			<path fill="#FFFFFF" d="M289.7,74c-5.2,0-6.9-1-6.9-5.6V56c0-4.7,1.8-5.6,6.9-5.6h9.2c5.2,0,7,0.9,7,5.6v12.3
				c0,4.7-1.8,5.6-7,5.6H289.7z M298.9,58c0-1.3-0.4-1.6-2-1.6h-5.2c-1.5,0-2,0.3-2,1.6v8.4c0,1.2,0.4,1.6,2,1.6h5.2
				c1.6,0,2-0.4,2-1.6V58z"/>
			<path fill="#FFFFFF" d="M308.2,74V50.4h7V68h9.4v6H308.2z"/>
			<path fill="#FFFFFF" d="M326.4,74V50.4h7V68h9.4v6H326.4z"/>
			<path fill="#FFFFFF" d="M344.5,74V50.4H366v6h-14.5v3h7.1V65h-7.1v3H366v6H344.5z"/>
			<path fill="#FFFFFF" d="M383,74v-6.4c0-1.1-0.3-1.6-1.7-1.6H375v8h-6.9V50.4h15.3c5.1,0,6.3,1.4,6.3,5.6v3.7
				c0,2.1-0.8,3.2-1.9,3.6c1.1,0.3,2.1,1.5,2.1,3.4V74H383z M383,57.8c0-0.9-0.2-1.4-1.3-1.4H375v4.1h6.6c1.2,0,1.3-0.5,1.3-1.6
				V57.8z"/>
			<path fill="#FFFFFF" d="M401.2,74V50.4h14.7c5.1,0,7,1,7,5.6v12.3c0,4.6-1.7,5.6-7,5.6H401.2z M416,58c0-1.1-0.4-1.6-2-1.6h-5.9
				V68h5.9c1.3,0,2-0.5,2-1.6V58z"/>
			<path fill="#FFFFFF" d="M425.3,74V50.4h21.5v6h-14.5v3h7.1V65h-7.1v3h14.5v6H425.3z"/>
			<path fill="#FFFFFF" d="M463.8,74v-6.4c0-1.1-0.3-1.6-1.7-1.6h-6.2v8H449V50.4h15.3c5.1,0,6.3,1.4,6.3,5.6v3.7
				c0,2.1-0.8,3.2-1.9,3.6c1.1,0.3,2.1,1.5,2.1,3.4V74H463.8z M463.8,57.8c0-0.9-0.2-1.4-1.3-1.4h-6.6v4.1h6.6
				c1.2,0,1.3-0.5,1.3-1.6V57.8z"/>
			<path fill="#FFFFFF" d="M494.7,68.3c0,4.7-1.8,5.6-7,5.6h-14.8V50.4h14.8c5.1,0,6.8,1,6.8,5.6v2.9c0,1.9-0.9,2.9-1.9,3.2
				c1.1,0.3,2.1,1.4,2.1,3.5V68.3z M479.9,56.4v3.1h6.8c1,0,1.2-0.5,1.2-1.6c0-1.1-0.3-1.5-1.2-1.5H479.9z M479.9,64.9V68h6.9
				c0.8,0,1.1-0.5,1.1-1.5c0-1.2-0.3-1.5-1.1-1.5H479.9z"/>
			<path fill="#FFFFFF" d="M502.3,74V64l-7.6-13.6h8.6l2.8,6.1l2.8-6.1h8.1L509.2,64v10H502.3z"/>
		</g>
	</g>
	<g>
		<rect x="252.8" y="83.9" fill="#FFFFFF" width="268.5" height="2.5"/>
	</g>
	<g>
		<rect x="252.8" y="2.9" fill="#FFFFFF" width="268.5" height="2.5"/>
	</g>
	<g>
		<path fill="#FFFFFF" d="M31.6,0h-2.4C5.8,0,0.7,4.1,0.7,21.3l0,45.7c0,17.2,5.1,21.3,28.5,21.3h2.4c23.5,0,28.5-4.1,28.5-21.3
			V39.2H29.7v16.3h6.4v12.7c0,3.4-1.5,3.7-4.5,3.7h-2.4c-3,0-4.5-0.4-4.5-3.7V20.3c0-3.4,1.6-4,4.5-4h2.4c2.8,0,4.5,0.6,4.5,4v10.5
			h24v-9.5C60.1,4.1,55.1,0,31.6,0z"/>
		<path fill="#FFFFFF" d="M106.4,77.6c-0.5-1-1-2-1.4-3.1c-0.1-0.3-0.1-0.8,0-1.1c0.3-1.1,0.7-2.2,1.1-3.3c0.6-1.7,1-3.4,0.9-5.4
			c-0.1-2.3,0.6-4.6,0.9-6.9c0.2-1.4,0.8-2.7,1.5-4c2-3.9,3.9-7.8,5.7-11.8c0.2-0.6,0.4-1.2,0.4-1.8c-2.4-1.4-5.5-2.3-9-3.4
			l-9.1-2.7c-8.6-2.6-9.9-3.1-9.9-8.7v-5.2c0-3.4,1.6-3.9,4.5-3.9h1.3c3,0,4.5,0.5,4.5,3.9v10h24v-8.9c0-17.2-5-21.3-28.5-21.3H92
			C68.6,0,63.5,4.1,63.5,21.3v10.4c0,12.8,6.8,15.2,16.8,18.6l10.1,3c5.8,2.1,7.9,2.1,7.9,6.9v8c0,3.2-1.5,3.9-4.5,3.9H92
			c-3,0-4.5-0.6-4.5-3.9V58h-24v9c0,17.2,5,21.3,28.5,21.3h1.8c17.2,0,24.5-2.2,27.2-10.2c-4.7-0.1-9.4-0.2-14.1-0.4
			C106.7,77.7,106.6,77.7,106.4,77.6z"/>
		<path fill="#FFFFFF" d="M155.6,0.5h-30.9v30.2c1.1-0.9,1.9-3.4,1.2-4.7c-1-1.9-1-3.6,0.4-5.3c1-1.2,0.5-2.6,0.4-3.5
			c1.1-2.3,2.1-4.2,3-6c-0.2-0.5-0.4-0.9-0.5-1.2c0.3-0.2,0.5-0.4,0.8-0.5c0.5-0.4,1.1-0.7,1.6-1.1c0.1-0.1,0.2-0.1,0.2-0.2
			c0.6,0.4,1.3,0.8,2,1.2c0.6-0.3,1.2-0.5,2-0.9c0.1,0.4,0.2,0.6,0.2,0.9c0.3,4.9,0.5,9.8,0.8,14.7c0.4,6.3,0.8,12.6,1.1,18.9
			c0.3,4.4,0.5,8.9,0.7,13.3c0.1,1.1-0.1,2.1,0,3.2c0.2,2,1.8,3,3.2,4.3c0,0.8-0.2,1.8,0.1,2.6c0.2,0.7,0.9,1.4,1.4,2
			c0.7,2.3-0.9,3.9-2,5.6c-1.7-0.6-4.5-0.2-5.3,1.4c-1.9,0.1-2.3,0.6-2.4,2c-0.7,0.4-1.4,0.7-2.1,0.8c-1.1,0.2-2.2,0.2-3.3,0.2
			c-1.2,0-2.4-0.1-3.6-0.1v9.6h23.8V55.3h7c2.8,0.1,4.3,2.6,4.3,5.7v26.8h23.8V63.2c0-11.9-3-15.5-13.4-16.6
			c9.9-0.6,13.4-3.5,13.4-15.5v-9.9C183.5,4.5,178.6,0.5,155.6,0.5z M159.7,36.3c0,3.1-1.5,3.6-4.2,3.6h-7.1V16.7h7
			c2.7,0,4.3,0.4,4.3,3.5V36.3z"/>
		<path fill="#FFFFFF" d="M245.2,21.6c0-17-4.9-21.1-28.1-21.1h-30.7v87.3h30.7c23.2,0,28.1-4.1,28.1-21.1L245.2,21.6z M221.6,67.7
			c0,3.2-1.6,3.9-4.5,3.9h-7V16.7h7c2.8,0,4.5,0.5,4.5,3.6V67.7z"/>
		<polygon fill="#FFFFFF" points="130.2,62.2 136.3,56.3 127.9,55 124.1,47.4 120.4,55 112,56.3 118.1,62.2 116.6,70.6 124.1,66.6
			131.7,70.6 		"/>
	</g>
</g>
</svg>
