<svg version="1.0" id="Layer_1" xmlns="http://www.w3.org/2000/svg" xmlns:xlink="http://www.w3.org/1999/xlink" x="0px" y="0px"
	 viewBox="0 0 512 512" enable-background="new 0 0 512 512" xml:space="preserve">
<g fill="#FFFFFF">
	<path d="M95.587,258.325l204.822,151.835l-52.915,71.381c-3.663,4.942-10.639,5.978-15.581,2.315l-46.269-34.299
		c19.322-26.065,13.856-62.858-12.209-82.179c-26.065-19.322-62.858-13.856-82.179,12.209l-46.269-34.299
		c-4.942-3.663-5.978-10.639-2.315-15.581L95.587,258.325z"/>
	<path d="M469.328,182.294l-52.915,71.381L211.591,101.839l52.915-71.381c3.663-4.942,10.639-5.978,15.581-2.315l46.269,34.299
		c-19.322,26.065-13.856,62.857,12.209,82.179c26.065,19.322,62.858,13.856,82.179-12.209l46.269,34.299
		C471.955,170.376,472.992,177.352,469.328,182.294z"/>
	<path d="M206.693,108.446l204.822,151.835L305.307,403.554L100.485,251.718L206.693,108.446z"/>
</g>
</svg>
