<?xml version="1.0" encoding="utf-8"?>
<!-- Generator: Adobe Illustrator 18.0.0, SVG Export Plug-In . SVG Version: 6.00 Build 0)  -->
<!DOCTYPE svg PUBLIC "-//W3C//DTD SVG 1.0//EN" "http://www.w3.org/TR/2001/REC-SVG-20010904/DTD/svg10.dtd">
<svg version="1.0" id="Layer_1" xmlns="http://www.w3.org/2000/svg" xmlns:xlink="http://www.w3.org/1999/xlink" x="0px" y="0px"
	 viewBox="95.139 259.61 431.039 460.096" enable-background="new 95.139 259.61 431.039 460.096" xml:space="preserve">
<g id="Layer_1">
	<g>
		<g>
			<g>
				<path fill="#FFFFFF" d="M97.33,563.365c-3.663,4.942-2.627,11.918,2.315,15.581l46.269,34.299
					c19.322-26.065,56.115-31.531,82.179-12.209c26.065,19.322,31.531,56.115,12.209,82.179l46.269,34.299
					c4.942,3.663,11.918,2.627,15.581-2.315l52.915-71.381L150.245,491.984L97.33,563.365z"/>
				<path fill="#FFFFFF" d="M521.672,400.371l-46.269-34.299c-19.322,26.065-56.115,31.531-82.179,12.209
					c-26.065-19.322-31.531-56.115-12.209-82.179l-46.269-34.299c-4.942-3.663-11.918-2.627-15.581,2.315l-52.915,71.381
					l204.822,151.835l52.915-71.381C527.65,411.01,526.613,404.034,521.672,400.371z"/>
				
					<rect x="183.177" y="400.486" transform="matrix(-0.8033 -0.5955 0.5955 -0.8033 268.6219 1068.0238)" fill="#FFFFFF" width="254.963" height="178.345"/>
			</g>
			<g>
				<path fill="#FFFFFF" d="M97.33,563.365c-3.663,4.942-2.627,11.918,2.315,15.581l46.269,34.299
					c19.322-26.065,56.115-31.531,82.179-12.209c26.065,19.322,31.531,56.115,12.209,82.179l46.269,34.299
					c4.942,3.663,11.918,2.627,15.581-2.315l52.915-71.381L150.245,491.984L97.33,563.365z"/>
				<path fill="#FFFFFF" d="M521.672,400.371l-46.269-34.299c-19.322,26.065-56.115,31.531-82.179,12.209
					c-26.065-19.322-31.531-56.115-12.209-82.179l-46.269-34.299c-4.942-3.663-11.918-2.627-15.581,2.315l-52.915,71.381
					l204.822,151.835l52.915-71.381C527.65,411.01,526.613,404.034,521.672,400.371z"/>
				
					<rect x="183.177" y="400.486" transform="matrix(-0.8033 -0.5955 0.5955 -0.8033 268.6219 1068.0238)" fill="#FFFFFF" width="254.963" height="178.345"/>
			</g>
		</g>
	</g>
	<g>
		<g>
			<g>
				<path fill="#FFFFFF" d="M97.33,563.365c-3.663,4.942-2.627,11.918,2.315,15.581l46.269,34.299
					c19.322-26.065,56.115-31.531,82.179-12.209c26.065,19.322,31.531,56.115,12.209,82.179l46.269,34.299
					c4.942,3.663,11.918,2.627,15.581-2.315l52.915-71.381L150.245,491.984L97.33,563.365z"/>
				<path fill="#FFFFFF" d="M521.672,400.371l-46.269-34.299c-19.322,26.065-56.115,31.531-82.179,12.209
					c-26.065-19.322-31.531-56.115-12.209-82.179l-46.269-34.299c-4.942-3.663-11.918-2.627-15.581,2.315l-52.915,71.381
					l204.822,151.835l52.915-71.381C527.65,411.01,526.613,404.034,521.672,400.371z"/>
				
					<rect x="183.177" y="400.486" transform="matrix(-0.8033 -0.5955 0.5955 -0.8033 268.6219 1068.0238)" fill="#FFFFFF" width="254.963" height="178.345"/>
			</g>
			<g>
				<path fill="#FFFFFF" d="M97.33,563.365c-3.663,4.942-2.627,11.918,2.315,15.581l46.269,34.299
					c19.322-26.065,56.115-31.531,82.179-12.209c26.065,19.322,31.531,56.115,12.209,82.179l46.269,34.299
					c4.942,3.663,11.918,2.627,15.581-2.315l52.915-71.381L150.245,491.984L97.33,563.365z"/>
				<path fill="#FFFFFF" d="M521.672,400.371l-46.269-34.299c-19.322,26.065-56.115,31.531-82.179,12.209
					c-26.065-19.322-31.531-56.115-12.209-82.179l-46.269-34.299c-4.942-3.663-11.918-2.627-15.581,2.315l-52.915,71.381
					l204.822,151.835l52.915-71.381C527.65,411.01,526.613,404.034,521.672,400.371z"/>
				
					<rect x="183.177" y="400.486" transform="matrix(-0.8033 -0.5955 0.5955 -0.8033 268.6219 1068.0238)" fill="#FFFFFF" width="254.963" height="178.345"/>
			</g>
			<g>
				<path fill="#FFFFFF" d="M97.33,563.365c-3.663,4.942-2.627,11.918,2.315,15.581l46.269,34.299
					c19.322-26.065,56.115-31.531,82.179-12.209c26.065,19.322,31.531,56.115,12.209,82.179l46.269,34.299
					c4.942,3.663,11.918,2.627,15.581-2.315l52.915-71.381L150.245,491.984L97.33,563.365z"/>
				<path fill="#FFFFFF" d="M521.672,400.371l-46.269-34.299c-19.322,26.065-56.115,31.531-82.179,12.209
					c-26.065-19.322-31.531-56.115-12.209-82.179l-46.269-34.299c-4.942-3.663-11.918-2.627-15.581,2.315l-52.915,71.381
					l204.822,151.835l52.915-71.381C527.65,411.01,526.613,404.034,521.672,400.371z"/>
				
					<rect x="183.177" y="400.486" transform="matrix(-0.8033 -0.5955 0.5955 -0.8033 268.6219 1068.0238)" fill="#FFFFFF" width="254.963" height="178.345"/>
			</g>
		</g>
	</g>
</g>
</svg>
