<?xml version="1.0" standalone="no"?>
<!DOCTYPE svg PUBLIC "-//W3C//DTD SVG 1.1//EN" "http://www.w3.org/Graphics/SVG/1.1/DTD/svg11.dtd" >
<svg xmlns="http://www.w3.org/2000/svg" xmlns:xlink="http://www.w3.org/1999/xlink" version="1.1">
<metadata>
Created by FontForge 20150401 at Sun Apr 26 13:17:18 2015
 By Sean Dempsey
</metadata>
<defs>
<font id="fontcustom" horiz-adv-x="512" >
  <font-face 
    font-family="fontcustom"
    font-weight="400"
    font-stretch="normal"
    units-per-em="512"
    panose-1="2 0 5 9 0 0 0 0 0 0"
    ascent="448"
    descent="-64"
    bbox="0 -64.8824 512 448.882"
    underline-thickness="25"
    underline-position="-76"
    unicode-range="U+F101-F11C"
  />
<missing-glyph 
d="M17 0v341h136v-341h-136zM34 17h102v307h-102v-307z" />
    <glyph glyph-name=".notdef" 
d="M17 0v341h136v-341h-136zM34 17h102v307h-102v-307z" />
    <glyph glyph-name=".null" horiz-adv-x="0" 
 />
    <glyph glyph-name="nonmarkingreturn" 
 />
    <glyph glyph-name="uniF101" unicode="&#xf101;" 
d="M512 298l-248 -235l-16 -16l-248 257l31 33l218 -226l232 219z" />
    <glyph glyph-name="uniF102" unicode="&#xf102;" 
d="M183 142h-73v74h73v-74zM294 216v-74h-73v74h73zM405 216v-74h-74v74h74zM183 109v-74h-73v74h73zM294 109v-74h-73v74h73zM405 109v-74h-74v74h74zM432 363q0 -6 -3 -11t-8.5 -8t-11.5 -3q-9 0 -16 6.5t-7 15.5v57q0 10 7 16.5t16.5 6.5t16 -6.5t6.5 -16.5v-57zM127 420
v-57q0 -6 -3 -11t-8.5 -8t-11.5 -3t-11.5 3t-8.5 8t-3 11v57q0 4 1.5 7.5t3.5 6t4.5 5t6 3.5t7.5 1q9 0 16 -6.5t7 -16.5zM459 387h53v-446h-512v446h54v-23q0 -20 15 -35t35.5 -15t35 15t14.5 35v23h205v-23q0 -20 15 -35t35.5 -15t35 15t14.5 35v23zM462 -9v276h-412v-276
h412z" />
    <glyph glyph-name="uniF103" unicode="&#xf103;" 
d="M451 343l61 -52l-256 -250l-256 247l61 52l195 -191z" />
    <glyph glyph-name="uniF104" unicode="&#xf104;" 
d="M407 -3l-52 -61l-250 256l247 256l52 -61l-191 -195z" />
    <glyph glyph-name="uniF105" unicode="&#xf105;" 
d="M105 387l52 61l250 -256l-247 -256l-52 61l191 195z" />
    <glyph glyph-name="uniF106" unicode="&#xf106;" 
d="M61 41l-61 51l256 251l256 -247l-61 -52l-195 191z" />
    <glyph glyph-name="uniF107" unicode="&#xf107;" 
d="M512 380l-188 -188l188 -188l-68 -68l-188 188l-188 -188l-68 68l188 188l-188 188l68 68l188 -188l188 188z" />
    <glyph glyph-name="uniF108" unicode="&#xf108;" 
d="M373 358h-55q-14 0 -19 -6t-5 -22v-49h79l-7 -87h-72v-258h-102v257h-53v88h53v69q0 98 110 98h71v-90z" />
    <glyph glyph-name="uniF109" unicode="&#xf109;" 
d="M512 -47l-17 -17l-239 239l-239 -239l-17 17l239 239l-239 239l17 17l239 -239l239 239l17 -17l-239 -239z" />
    <glyph glyph-name="uniF10A" unicode="&#xf10a;" 
d="M256 448q106 0 181 -75t75 -181t-75 -181t-181 -75t-181 75t-75 181t75 181t181 75zM332 297v58h-46q-71 0 -71 -63v-44h-35v-57h35v-164h66v165h46l5 56h-51v31q0 10 3 14t12 4h36z" />
    <glyph glyph-name="uniF10B" unicode="&#xf10b;" 
d="M256 448q106 0 181 -75t75 -181t-75 -181t-181 -75t-181 75t-75 181t75 181t181 75zM410 306h-305l152 -117zM104 274v-159l90 90zM104 78h306l-110 110l-43 -32l-43 33zM411 115v159l-90 -69z" />
    <glyph glyph-name="uniF10C" unicode="&#xf10c;" 
d="M256 448q106 0 181 -75t75 -181t-75 -181t-181 -75t-181 75t-75 181t75 181t181 75zM385 236q17 13 29 31q-16 -7 -34 -10q20 12 26 33q-17 -10 -37 -14q-18 19 -44 19q-28 0 -46 -22.5t-12 -50.5q-74 4 -122 62q-12 -20 -6.5 -43t24.5 -36q-14 0 -26 7q-1 -14 5 -26.5
t17 -21t25 -11.5q-13 -4 -27 -1q4 -12 12 -21t19.5 -14.5t24.5 -5.5q-39 -31 -88 -25q42 -27 91 -27q78 0 125 55t44 122z" />
    <glyph glyph-name="uniF10D" unicode="&#xf10d;" 
d="M502 318q2 -2 4 -3t2.5 -2.5t0.5 -7.5q-3 -3 -6 -12t-6 -12q-3 -2 -8 -3.5t-8 -3.5v-1l-1 -1q-2 -2 -5 -3t-6.5 -2t-5.5 -2q-1 -2 -3 -5q-2 -1 -7 -2.5t-8 -2.5l-3 -3l-3 -3q-1 0 -3 -0.5t-4 -0.5q-2 -2 -4.5 -6t-4.5 -5q0 -2 -1 -12.5t1 -13.5l1 -0.5l1 -0.5l-1 -3
q7 -12 15 -40q5 -14 3 -19q-1 -3 -5 -9t-5 -9q6 -5 7 -15.5t-1 -20t0 -21.5q1 -2 0.5 -12.5t-1.5 -15.5q-1 -3 -1 -7t-0.5 -8.5t-0.5 -7.5h2v-1q-1 -6 -3 -14.5t-5 -18t-4 -13.5q-4 -2 -14 -8t-16 -9q-4 -1 -9 -2t-8 -2t-7 -2.5t-7.5 -3t-8 -3l-7.5 -2.5h-5q-25 -9 -35 -6
q-53 14 -65 20q-1 1 -10 6.5t-13 7.5q-8 -12 -40 -17t-51 1q-3 1 -7.5 2t-7 1.5t-5 1.5t-3.5 4t-1 8l3 1l-9 21q-5 10 -18.5 26t-17.5 22l-5 6t-6 9q-1 2 -2 5t-1 5.5t-1.5 4.5t-2.5 4q-2 0 -5 1h-2q-20 10 -26 24q-5 13 -2 22q3 11 2 11q-18 72 -4 117q1 2 1.5 5.5l1 7
t0.5 5.5q21 61 63 97.5t109 63.5h6q6 2 14.5 4.5t18.5 5t16 4.5q3 1 14.5 1.5t14.5 2.5q7 0 20 -3q2 -4 4 -5q10 5 41 4t43 -4q2 -1 13 -3t15 -4q2 -2 3 -6l3 -4l16 -7q3 -1 12 -1.5t12 -2.5l11 -14v-5l5 -2q0 -2 1 -4t1 -3q2 -3 7.5 -8t6.5 -8v-3h3q0 -1 0.5 -2.5t1.5 -2.5
q0 -1 1.5 -2t2.5 -1l4 -18l3 -3q1 -2 2 -9t3 -9zM411 11l-1 3q7 25 7 77h-4q-1 2 -2.5 5.5t-2.5 7t-2.5 7t-2.5 5.5q-17 -7 -31.5 0t-28.5 24t-18 20h-3q-3 2 -7.5 7t-6.5 8l-6 3t-5 4q-10 1 -17 -1.5t-17 -9t-13 -7.5q-1 -1 -6.5 -3.5t-8.5 -4.5t-4 -6q-4 -4 -4 -21t2 -24
q7 -19 7.5 -20.5t2.5 -3.5t3.5 -4t2.5 -4v-4q0 -1 1 -1.5t2 -0.5q-1 -1 -1.5 -2t-0.5 -2h3q1 -2 4.5 -16.5t2.5 -17.5q-4 -19 -4 -21q3 -1 8 -5.5t7 -5.5h4q1 0 3 -2.5t3 -2.5q1 -1 4 -1q1 -1 2 -1q1 -1 3 -2t3.5 -2.5l3 -3t3.5 -2.5t3 -2q2 -1 4.5 -2t4.5 -2l4 -2
q1 -1 4.5 -3.5t5.5 -4t7 -3t8 0.5q14 4 41 16q3 1 8 2.5t8.5 2.5t7 3.5t5.5 5.5q2 2 3.5 9.5t0.5 9.5z" />
    <glyph glyph-name="uniF10E" unicode="&#xf10e;" 
d="M453 448q24 0 41.5 -17.5t17.5 -41.5v-394q0 -24 -17.5 -41.5t-41.5 -17.5h-394q-24 0 -41.5 17.5t-17.5 41.5v394q0 24 17.5 41.5t41.5 17.5h394zM256 290q-27 0 -49.5 -13t-35.5 -35.5t-13 -49.5t13 -49.5t35.5 -35.5t49.5 -13q41 0 69.5 28.5t28.5 69.5t-28.5 69.5
t-69.5 28.5zM453 15v216h-45q6 -19 6 -39q0 -65 -46.5 -111.5t-111.5 -46.5t-111.5 46.5t-46.5 111.5q0 20 6 39h-45v-216q0 -8 6 -14t14 -6h354q8 0 14 6t6 14zM453 310v59q0 8 -6 14t-14 6h-59q-8 0 -14 -6t-6 -14v-59q0 -8 6 -14t14 -6h59q8 0 14 6t6 14z" />
    <glyph glyph-name="uniF10F" unicode="&#xf10f;" 
d="M0 377h512v-370h-1h-511v370zM454 335h-396l198 -148zM43 292v-183l107 104zM44 49h423l-140 137l-71 -53l-72 54zM469 108v184l-107 -80z" />
    <glyph glyph-name="uniF110" unicode="&#xf110;" 
d="M0 -11v75h512v-75h-512zM0 155v74h512v-74h-512zM0 395h512v-75h-512v75z" />
    <glyph glyph-name="uniF111" unicode="&#xf111;" 
d="M138 -64l-9 9l246 242l-257 252l9 9l258 -252l9 -9z" />
    <glyph glyph-name="uniF112" unicode="&#xf112;" 
d="M393 -55l-9 -9l-256 251l-9 10l256 251l9 -9l-246 -241z" />
    <glyph glyph-name="uniF113" unicode="&#xf113;" 
d="M512 313l-242 -242l-14 -14l-14 14l-242 242l14 14l242 -242l242 242z" />
    <glyph glyph-name="uniF114" unicode="&#xf114;" 
d="M512 201v-18h-247v-247h-18v247h-247v18h247v247h18v-247h247z" />
    <glyph glyph-name="uniF115" unicode="&#xf115;" 
d="M169 357h283v-37h-283v37zM96 64h248v-37h-284v37v175h-60l78 142l85 -142h-67v-175zM416 320h36v-175h60l-78 -142l-85 142h67v175z" />
    <glyph glyph-name="uniF116" unicode="&#xf116;" 
d="M507 448v-460l-203 116l-132 -168v177h-167zM493 426l-287 -304v-96z" />
    <glyph glyph-name="uniF117" unicode="&#xf117;" 
d="M443 73q12 -7 22.5 -23t12.5 -32q-5 -3 -12.5 -8t-13 -8.5t-12.5 -7.5t-14 -6q-5 -2 -15.5 -3t-19.5 -2t-12 -4q-3 -6 -5 -13q-15 -15 -30.5 -22.5t-42.5 -7.5q-5 6 -17 9q-1 2 -10 14.5t-12 19.5q-4 16 2 26.5t16.5 18.5t12.5 15q-3 15 -5 22q-29 10 -73 12
q-16 -41 -43 -51h-26q0 -2 -1 -4.5t-1.5 -4.5t-1.5 -4q-26 -26 -60 -30q-7 6 -18 13t-16 11t-9 15t-5 30q4 3 5.5 8.5t3.5 8.5q5 7 30 21q6 3 20.5 4.5t18.5 12.5h-4v5q-6 0 -9 -3q-1 0 -2 2q-1 3 -2 5q-24 18 -35 69q2 9 4 21l-5 21.5t-3 30.5q2 8 8 31t9.5 40.5t3.5 35.5
q-1 1 -5.5 3t-6 3t-5.5 3.5t-5.5 3.5t-5 3.5t-5 4.5t-3.5 5.5t-3 6t-2 6.5l-2 8h5q4 -30 43 -38q0 3 1.5 10t2.5 11q-10 6 -17 17h8q3 -3 3 -5h1q3 1 5 1q7 4 18.5 11t22.5 13.5t19 9.5q5 2 15.5 3.5t14.5 5.5q49 2 56 -4q11 -4 23.5 -18t15.5 -25q1 -2 -2 -16t-2 -19
q11 -65 30 -90q5 -7 13.5 -14t17 -13t19.5 -12t19.5 -10t20 -10t18 -9.5t19.5 -8t19 -8t11.5 -12.5t5.5 -23q3 -3 3.5 -20t-3.5 -23q-5 -2 -12 -4q-1 -6 -2.5 -17.5t-2.5 -17.5zM284 78v8q-11 7 -17 13q-11 2 -32.5 4.5t-32.5 4.5q1 -1 2 -3q3 -7 5.5 -9.5t9.5 -4.5
q14 -11 65 -13zM340 69q2 3 4 9q-8 1 -17 4q2 -8 2.5 -8.5t6.5 -4.5v-3q0 -1 0.5 -1.5t3.5 0.5v4zM47 417q13 -2 22 -4v-5h-13l-4.5 4.5z" />
    <glyph glyph-name="uniF118" unicode="&#xf118;" 
d="M0 258l194 -1l64 184l60 -186l194 -4l-158 -113l56 -187l-157 115l-159 -110l61 184z" />
    <glyph glyph-name="uniF119" unicode="&#xf119;" 
d="M19 110l58 79l228 -169l-58 -79q-8 -10 -18 -3l-51 39q16 21 12 48t-26 43t-48.5 12t-42.5 -26l-52 39q-10 7 -2 17zM491 291q10 -7 2 -17l-58 -79l-228 169l58 79q8 10 18 3l51 -39q-16 -21 -12 -48t26 -43t48.5 -12t42.5 26zM429 187l-118 -159l-228 169l118 159z" />
    <glyph glyph-name="uniF11A" unicode="&#xf11a;" 
d="M334 277l-78 161l-78 -161l-176 -24l128 -123l-31 -176l157 84l157 -84l-31 176l128 123zM256 355l54 -111l122 -16l-89 -86l22 -121l-109 58l-109 -58l22 121l-89 86l122 16z" />
    <glyph glyph-name="uniF11B" unicode="&#xf11b;" 
d="M221 268v-67l-142 85l142 78v-60h175h37v-284h-37v248h-175z" />
    <glyph glyph-name="uniF11C" unicode="&#xf11c;" 
d="M460 297q2 -56 -17.5 -112t-56.5 -101t-96 -73.5t-129 -28.5q-87 0 -161 48q87 -10 156 44q-35 0 -61.5 20.5t-37.5 52.5q24 -4 48 2q-38 8 -61.5 38t-22.5 67q22 -12 47 -13q-35 23 -44 64.5t12 76.5q39 -49 95.5 -78t120.5 -32q-11 49 20.5 89.5t81.5 40.5q46 0 77 -34
q36 7 67 26q-12 -38 -46 -59q31 4 60 17q-21 -32 -52 -55z" />
  </font>
</defs>
</svg>
