<svg xmlns="http://www.w3.org/2000/svg" viewBox="0 0 360.5 69" enable-background="new 0 0 360.5 69"><path fill="#00ABBB" d="M239.2 24.6V0H121.5v24.5c2.6 1.3 4.5 5.2 4.5 9.8v.2c0 4.6-1.9 8.5-4.5 9.8V69h117.7V43.9c-2.5-1.4-4.3-5.2-4.3-9.7 0-4.4 1.8-8.2 4.3-9.6z"/><path fill="#F47920" d="M356.4 34.5c0-4.3 1.7-8 4-9.5V0H242.8v24.7c2.7 1.2 4.7 5.1 4.7 9.9 0 4.7-2 8.7-4.7 9.9V69h117.7V44c-2.4-1.4-4.1-5.1-4.1-9.5z"/><path fill="#7A3C00" d="M117.7 24.2V0H0v25.2c2 1.7 3.4 5.1 3.4 9.1v.2c0 3.9-1.4 7.3-3.4 9.1V69h117.7V44.3c-3-.8-5.3-5-5.3-10.1-.1-5 2.2-9.3 5.3-10z"/><g fill="#fff"><path d="M28.3 43.7h-6.4V26.4h6.3c2.8 0 4.3 1.5 4.3 4v1.2c0 1.6-.6 2.9-2.4 3.2 1.8.4 2.5 1.6 2.5 3.2v1.7c0 2.5-1.5 4-4.3 4zm.7-13c0-.9-.4-1.4-1.3-1.4h-2.1v4.4h1.9c1 0 1.5-.5 1.5-1.5v-1.5zm.1 7.1c0-1-.5-1.5-1.5-1.5h-2v4.5h2.2c1 0 1.3-.5 1.3-1.4v-1.6zM44.9 43.8c-1.5 0-2.1-1-2.1-2.7v-2.8c0-.9-.5-1.7-1.5-1.7h-2v7.1h-3.7V26.4h6.2c2.8 0 4.5 1.6 4.5 4.1v1.9c0 1.4-.7 2.5-2.2 2.9 1.6.4 2.3 1.7 2.3 2.9V41c0 .8.3 1.4.7 1.8v1.1h-2.2zm-2.2-13.1c0-.9-.4-1.4-1.3-1.4h-2.1v4.8h2c1 0 1.5-.5 1.5-1.5v-1.9zM55.6 44.2c-3.6 0-5.7-2.2-5.7-5.3v-7.6c0-3.1 2.1-5.3 5.7-5.3s5.7 2.2 5.7 5.3v7.6c0 3.1-2.1 5.3-5.7 5.3zm1.9-13.1c0-1.2-.7-1.9-1.9-1.9s-1.9.8-1.9 1.9v8c0 1.2.7 1.9 1.9 1.9s1.9-.8 1.9-1.9v-8zM78.2 43.7h-3.3l-2.1-10.1-2.1 10.1h-3.3l-3.6-17.3h3.7l1.9 11.3 2.2-11.3h2.9l2.1 11.3 1.9-11.3h3.4l-3.7 17.3zM93.3 43.7l-3.8-6.9-1.5-2.9v9.8h-3.4V26.4h3.1l3.7 7.1 1.4 2.8v-9.9h3.4v17.3h-2.9z"/></g><g fill="#fff"><path d="M154.2 37.3h-2.5v6.4H148V26.4h6.3c2.9 0 4.4 1.7 4.4 4.3V33c0 2.6-1.5 4.3-4.5 4.3zm.9-6.5c0-.9-.4-1.5-1.3-1.5h-2.1v5.2h2.1c1 0 1.3-.5 1.3-1.5v-2.2zM168.3 43.7l-.7-3.4H164l-.7 3.4h-3.5l4.1-17.3h4.2l4 17.3h-3.8zm-2.4-12.5l-1.3 6.3h2.5l-1.2-6.3zM181.2 37.3h-2.5v6.4H175V26.4h6.3c2.9 0 4.4 1.7 4.4 4.3V33c0 2.6-1.6 4.3-4.5 4.3zm.9-6.5c0-.9-.4-1.5-1.3-1.5h-2.1v5.2h2.1c1 0 1.3-.5 1.3-1.5v-2.2zM188.5 43.7V26.4h9.6v3.1h-5.9v3.8h4.1v2.8h-4.1v4.3h5.9v3.2h-9.6zM211.3 43.8c-1.5 0-2.1-1-2.1-2.7v-2.8c0-.9-.5-1.7-1.5-1.7h-2v7.1H202V26.4h6.2c2.8 0 4.5 1.6 4.5 4.1v1.9c0 1.4-.7 2.5-2.2 2.9 1.6.4 2.3 1.7 2.3 2.9V41c0 .8.3 1.4.7 1.8v1.1h-2.2zm-2.2-13.1c0-.9-.4-1.4-1.3-1.4h-2.1v4.8h1.9c1 0 1.5-.5 1.5-1.5v-1.9z"/></g><g fill="#fff"><path d="M264.5 29.6v14.1h-3.7V29.6h-3.7v-3.2h11.2v3.2h-3.8zM271.5 43.7V26.4h3.7v17.3h-3.7zM285 44.2c-3.7 0-5.8-2.4-5.8-5.4v-7.5c0-3 2.1-5.4 5.8-5.4 3.6 0 5.5 2.2 5.5 5v1.7h-3.3V31c0-1.2-.7-2-2.1-2-1.4 0-2.1.8-2.1 1.9V39c0 1.1.7 1.9 2.1 1.9 1.4 0 2.1-.8 2.1-2v-1.6h3.3V39c0 3-1.8 5.2-5.5 5.2zM302.9 43.7l-2.9-7.1-1.3 2.1v5H295V26.4h3.7v7.7l4.1-7.7h3.8l-4 7.3 4.2 10h-3.9zM310 43.7V26.4h9.6v3.1h-5.9v3.8h4.1v2.8h-4.1v4.3h5.9v3.2H310zM330.1 29.6v14.1h-3.7V29.6h-3.7v-3.2h11.2v3.2h-3.8zM340.7 44.2c-3.4 0-5.6-1.9-5.6-4.9v-.9h3.4v.6c0 1.5.7 2.2 2.1 2.2 1.3 0 2-.8 2-2s-1-2-3-3c-2.1-1.1-4.3-2.5-4.3-5.1 0-2.7 1.9-5 5.4-5 3.2 0 5.3 2.1 5.3 4.9v.7h-3.4V31c0-1.2-.7-2.1-2-2.1-1.1 0-1.8.7-1.8 1.7 0 1.2 1 1.9 3.2 3 2.4 1.3 4.1 2.7 4.1 5.2.1 2.9-2 5.4-5.4 5.4z"/></g></svg>