<?xml version="1.0" encoding="utf-8"?>
<!-- Generator: Adobe Illustrator 18.1.1, SVG Export Plug-In . SVG Version: 6.00 Build 0)  -->
<!DOCTYPE svg PUBLIC "-//W3C//DTD SVG 1.1//EN" "http://www.w3.org/Graphics/SVG/1.1/DTD/svg11.dtd">
<svg version="1.1" id="_x3C_Layer_x3E_" xmlns="http://www.w3.org/2000/svg" xmlns:xlink="http://www.w3.org/1999/xlink" x="0px"
	 y="0px" viewBox="0 0 360.5 69" enable-background="new 0 0 360.5 69" xml:space="preserve">
<g>
	<path fill="#00ABBB" d="M239.2,24.6V0H121.5v24.5c2.6,1.3,4.5,5.2,4.5,9.8c0,0,0,0.1,0,0.1c0,0,0,0.1,0,0.1c0,4.6-1.9,8.5-4.5,9.8
		V69h117.7V43.9c-2.5-1.4-4.3-5.2-4.3-9.7C234.9,29.8,236.7,26,239.2,24.6z"/>
	<path fill="#F47920" d="M356.4,34.5c0-4.3,1.7-8,4-9.5V0H242.8v24.7c2.7,1.2,4.7,5.1,4.7,9.9c0,4.7-2,8.7-4.7,9.9V69h117.7V44
		C358.1,42.6,356.4,38.9,356.4,34.5z"/>
	<path fill="#7A3C00" d="M117.7,24.2V0H0v25.2c2,1.7,3.4,5.1,3.4,9.1c0,0,0,0.1,0,0.1c0,0,0,0.1,0,0.1c0,3.9-1.4,7.3-3.4,9.1V69
		h117.7V44.3c-3-0.8-5.3-5-5.3-10.1C112.3,29.2,114.6,24.9,117.7,24.2z"/>
	<g>
		<path fill="#FFFFFF" d="M28.3,43.7h-6.4V26.4h6.3c2.8,0,4.3,1.5,4.3,4v1.2c0,1.6-0.6,2.9-2.4,3.2c1.8,0.4,2.5,1.6,2.5,3.2v1.7
			C32.6,42.2,31.1,43.7,28.3,43.7z M29,30.7c0-0.9-0.4-1.4-1.3-1.4h-2.1v4.4h1.9c1,0,1.5-0.5,1.5-1.5V30.7z M29.1,37.8
			c0-1-0.5-1.5-1.5-1.5h-2v4.5h2.2c1,0,1.3-0.5,1.3-1.4V37.8z"/>
		<path fill="#FFFFFF" d="M44.9,43.8c-1.5,0-2.1-1-2.1-2.7v-2.8c0-0.9-0.5-1.7-1.5-1.7h-2v7.1h-3.7V26.4h6.2c2.8,0,4.5,1.6,4.5,4.1
			v1.9c0,1.4-0.7,2.5-2.2,2.9c1.6,0.4,2.3,1.7,2.3,2.9V41c0,0.8,0.3,1.4,0.7,1.8v1.1H44.9z M42.7,30.7c0-0.9-0.4-1.4-1.3-1.4h-2.1
			v4.8h2c1,0,1.5-0.5,1.5-1.5V30.7z"/>
		<path fill="#FFFFFF" d="M55.6,44.2c-3.6,0-5.7-2.2-5.7-5.3v-7.6c0-3.1,2.1-5.3,5.7-5.3c3.6,0,5.7,2.2,5.7,5.3v7.6
			C61.3,42,59.2,44.2,55.6,44.2z M57.5,31.1c0-1.2-0.7-1.9-1.9-1.9c-1.2,0-1.9,0.8-1.9,1.9v8c0,1.2,0.7,1.9,1.9,1.9
			c1.2,0,1.9-0.8,1.9-1.9V31.1z"/>
		<path fill="#FFFFFF" d="M78.2,43.7h-3.3l-2.1-10.1l-2.1,10.1h-3.3l-3.6-17.3h3.7l1.9,11.3l2.2-11.3h2.9l2.1,11.3l1.9-11.3h3.4
			L78.2,43.7z"/>
		<path fill="#FFFFFF" d="M93.3,43.7l-3.8-6.9L88,33.9v9.8h-3.4V26.4h3.1l3.7,7.1l1.4,2.8v-9.9h3.4v17.3H93.3z"/>
	</g>
	<g>
		<path fill="#FFFFFF" d="M154.2,37.3h-2.5v6.4H148V26.4h6.3c2.9,0,4.4,1.7,4.4,4.3V33C158.7,35.6,157.2,37.3,154.2,37.3z
			 M155.1,30.8c0-0.9-0.4-1.5-1.3-1.5h-2.1v5.2h2.1c1,0,1.3-0.5,1.3-1.5V30.8z"/>
		<path fill="#FFFFFF" d="M168.3,43.7l-0.7-3.4H164l-0.7,3.4h-3.5l4.1-17.3h4.2l4,17.3H168.3z M165.9,31.2l-1.3,6.3h2.5L165.9,31.2z
			"/>
		<path fill="#FFFFFF" d="M181.2,37.3h-2.5v6.4H175V26.4h6.3c2.9,0,4.4,1.7,4.4,4.3V33C185.7,35.6,184.1,37.3,181.2,37.3z
			 M182.1,30.8c0-0.9-0.4-1.5-1.3-1.5h-2.1v5.2h2.1c1,0,1.3-0.5,1.3-1.5V30.8z"/>
		<path fill="#FFFFFF" d="M188.5,43.7V26.4h9.6v3.1h-5.9v3.8h4.1v2.8h-4.1v4.3h5.9v3.2H188.5z"/>
		<path fill="#FFFFFF" d="M211.3,43.8c-1.5,0-2.1-1-2.1-2.7v-2.8c0-0.9-0.5-1.7-1.5-1.7h-2v7.1H202V26.4h6.2c2.8,0,4.5,1.6,4.5,4.1
			v1.9c0,1.4-0.7,2.5-2.2,2.9c1.6,0.4,2.3,1.7,2.3,2.9V41c0,0.8,0.3,1.4,0.7,1.8v1.1H211.3z M209.1,30.7c0-0.9-0.4-1.4-1.3-1.4h-2.1
			v4.8h1.9c1,0,1.5-0.5,1.5-1.5V30.7z"/>
	</g>
	<g>
		<path fill="#FFFFFF" d="M264.5,29.6v14.1h-3.7V29.6h-3.7v-3.2h11.2v3.2H264.5z"/>
		<path fill="#FFFFFF" d="M271.5,43.7V26.4h3.7v17.3H271.5z"/>
		<path fill="#FFFFFF" d="M285,44.2c-3.7,0-5.8-2.4-5.8-5.4v-7.5c0-3,2.1-5.4,5.8-5.4c3.6,0,5.5,2.2,5.5,5v1.7h-3.3v-1.6
			c0-1.2-0.7-2-2.1-2c-1.4,0-2.1,0.8-2.1,1.9v8.1c0,1.1,0.7,1.9,2.1,1.9c1.4,0,2.1-0.8,2.1-2v-1.6h3.3v1.7
			C290.5,42,288.7,44.2,285,44.2z"/>
		<path fill="#FFFFFF" d="M302.9,43.7l-2.9-7.1l-1.3,2.1v5h-3.7V26.4h3.7v7.7l4.1-7.7h3.8l-4,7.3l4.2,10H302.9z"/>
		<path fill="#FFFFFF" d="M310,43.7V26.4h9.6v3.1h-5.9v3.8h4.1v2.8h-4.1v4.3h5.9v3.2H310z"/>
		<path fill="#FFFFFF" d="M330.1,29.6v14.1h-3.7V29.6h-3.7v-3.2h11.2v3.2H330.1z"/>
		<path fill="#FFFFFF" d="M340.7,44.2c-3.4,0-5.6-1.9-5.6-4.9v-0.9h3.4v0.6c0,1.5,0.7,2.2,2.1,2.2c1.3,0,2-0.8,2-2c0-1.2-1-2-3-3
			c-2.1-1.1-4.3-2.5-4.3-5.1c0-2.7,1.9-5,5.4-5c3.2,0,5.3,2.1,5.3,4.9v0.7h-3.4V31c0-1.2-0.7-2.1-2-2.1c-1.1,0-1.8,0.7-1.8,1.7
			c0,1.2,1,1.9,3.2,3c2.4,1.3,4.1,2.7,4.1,5.2C346.2,41.7,344.1,44.2,340.7,44.2z"/>
	</g>
</g>
</svg>
