<svg version="1" xmlns="http://www.w3.org/2000/svg" viewBox="133.955 298.833 362.045 365.767" enable-background="new 133.955 298.833 362.045 365.767"><path fill-rule="evenodd" clip-rule="evenodd" fill="#fff" d="M491 391.84c-2.446-3.333-2.265-8.842-4-13l-2-2-3-13-3-2-1-4h-2v-2c-2.848-3.724-7.318-7.223-10-11-1.212-1.707-.81-3.27-2-5l-3-2v-3l-8-10c-4.002-2.988-11.943-.93-17-3-.76-.31-11.768-4.783-12-5-1.85-1.732-1.85-5.535-4-7-4.84-3.297-13.67-3.057-20-5-8.978-2.755-52.463-5.852-60 0-2.73-1.223-1.914-1.343-3-4-4.402-.99-7.766-2.106-14-2-3.768 2.82-15.55 1.383-21 3-11.618 3.446-24.397 6.24-35 10h-4c-59.917 23.532-101.62 53.752-123 115l-2 13c-7.904 25.667-2.763 60.113 3 83 .82 3.258-1.45 6.072-2 8-1.002 3.52.96 13.418 2 16 3.13 7.774 10.76 13.248 18 17l5 1c3.683 2.56 3.034 8.545 5 13 1.844 4.178 5.542 7.578 8 11 8.81 12.263 19.353 21.817 26 34l6 15-2 1c.145 12 7.836 9.23 17 12 18.8 5.684 57.345.174 65-11 5.6 1.626 12.136 7.456 17 10 12.88 6.737 30.554 10.034 46 14 10.01 2.57 19.25-2.047 25-4h4c6.558-2.23 14.45-5.743 21-8 4.456-1.535 7.83-1.218 12-3 7.572-3.236 14.974-8.543 22-12 2.31-9.658 6.523-22.538 8-33v-1h-1l1-16c1.597-5.942 1.484-17.527 1-20-3.042-15.562 5.695-31.886-4-41 1.42-4.68 5.475-7.86 7-13 1.476-4.976-1.117-10.215-2-13-3.48-10.977-6.226-19.77-11-29l1-2-2-1c-1.507-3.916.576-14.55 0-18 2.864-2.054 4.022-6.12 7-8l5-1c1.193-.642 2.834-3.273 4-4 3.545-2.21 7.177-1.86 11-4l2-3c3.795-2.454 8.152-2.62 12-5l1-2c3.596-2.223 7.82-2.424 11-5 4.682-3.792 4.425-12.985 9-17-.355-9.195-2.1-5.048-5-9zm-65 219c.208 1.81-1.105 11.676-3 14-4.15 5.752-14.06 6.952-21 10-8.66 3.804-18.842 8.29-29 11-8.57 2.288-13.826-4.39-18-7-3.078-1.924-5.932-2.063-9-4-3.915-2.472-8.016-6.506-12-9l-4-1c-1.176-.74-2.8-3.34-4-4h-3c-3.156-1.738-7.392-6.532-11-8 .78-6.827 1.567-8.07 3-15 .57-2.752-3.985-22.593-5-24h-2l1-3-2-1v-3c-1.31-2.828-4.646-5.475-6-8-1.988-3.707-3.807-11.237-5-15-2.158-6.81-2.533-27.806 1-32 1.802-6.126 8.787-7.21 14-10 10.65-5.7 18.205-14.17 33-13 2.17 2.35 5.352 3.063 8 5l10 11h2c13.547 10.288 28.306 42.465 56 31 2.488 5.396 4.348 12.82 7 18h3c.066 21.82-.34 38.673-5 55-.437 1.53 1 2 1 2z"/></svg>