<svg xmlns="http://www.w3.org/2000/svg" viewBox="0 0 521.3 92.3" enable-background="new 0 0 521.3 92.3"><g opacity=".5"><g fill="#0A565D"><path d="M266.2 42.1c-5.1 0-6.7-1-6.7-5.4v-12c0-4.3 1.6-5.4 6.7-5.4h14.2v5.8h-12.3c-1.7 0-2 .4-2 1.6v8.1c0 1.1.4 1.6 2 1.6h5.9v-2.8h-5.8v-5.7h12.3v14.3h-14.3zM297.2 42.1v-6.2c0-1-.3-1.6-1.6-1.6h-6v7.8h-6.7V19.3h14.8c5 0 6.1 1.3 6.1 5.4v3.6c0 2-.8 3.1-1.9 3.5 1 .3 2 1.4 2 3.3v7h-6.7zm0-15.7c0-.9-.2-1.3-1.3-1.3h-6.4v4h6.4c1.2 0 1.3-.5 1.3-1.6v-1.1zM320.6 42.1l-1-3.3h-6.3l-1 3.3H305l7.1-22.8h8.5l7.1 22.8h-7.1zm-4.1-16.2l-1.9 7.3h3.8l-1.9-7.3zM343.3 42.1l-7.7-10.9v10.9h-6.3V19.3h6.9l7.4 11.6V19.3h6.4v22.8h-6.7zM352.4 42.1V19.3h6.7v22.8h-6.7zM367.1 42.1v-17h-6.3v-5.8h19.3v5.8h-6.3v17h-6.7zM381.9 42.1V19.3h20.7v5.8h-14V28h6.8v5.4h-6.8v2.9h14v5.8h-20.7zM413.1 42.1v-5.8h13.8c.7 0 .9-.4.9-1.5 0-.9-.2-1.3-.9-1.3h-8.7c-3.3 0-5-1.8-5-4.8v-4.1c0-3.9 1.1-5.4 5.8-5.4h13.4V25h-12.1c-.7 0-.8.4-.8 1.4 0 .9.3 1.4 1 1.4h8.6c3.6 0 5.1 2 5.1 5.4v3.4c0 3.7-1.4 5.4-5.5 5.4h-15.6zM441.6 42.1v-17h-6.3v-5.8h19.3v5.8h-6.3v17h-6.7zM467.7 42.1l-1-3.3h-6.3l-1 3.3h-7.3l7.1-22.8h8.5l7.1 22.8h-7.1zm-4.1-16.2l-1.9 7.3h3.8l-1.9-7.3zM478.7 42.1v-17h-6.3v-5.8h19.3v5.8h-6.3v17h-6.7zM493.4 42.1V19.3h20.7v5.8h-14V28h6.8v5.4h-6.8v2.9h14v5.8h-20.7z"/></g><g fill="#0A565D"><path d="M273 78v-6.4c0-1.1-.3-1.6-1.7-1.6h-6.2v8h-6.9V54.4h15.3c5.1 0 6.3 1.4 6.3 5.6v3.7c0 2.1-.8 3.2-1.9 3.6 1.1.3 2.1 1.5 2.1 3.4V78h-7zm0-16.2c0-.9-.2-1.4-1.3-1.4h-6.6v4.1h6.6c1.2 0 1.3-.5 1.3-1.6v-1.1zM288.9 78c-5.2 0-6.9-1-6.9-5.6V60c0-4.7 1.8-5.6 6.9-5.6h9.2c5.2 0 7 .9 7 5.6v12.3c0 4.7-1.8 5.6-7 5.6h-9.2zm9.3-16c0-1.3-.4-1.6-2-1.6H291c-1.5 0-2 .3-2 1.6v8.4c0 1.2.4 1.6 2 1.6h5.2c1.6 0 2-.4 2-1.6V62zM307.5 78V54.4h7V72h9.4v6h-16.4zM325.6 78V54.4h7V72h9.4v6h-16.4zM343.7 78V54.4h21.5v6h-14.5v3h7.1V69h-7.1v3h14.5v6h-21.5zM382.2 78v-6.4c0-1.1-.3-1.6-1.7-1.6h-6.2v8h-6.9V54.4h15.3c5.1 0 6.3 1.4 6.3 5.6v3.7c0 2.1-.8 3.2-1.9 3.6 1.1.3 2.1 1.5 2.1 3.4V78h-7zm0-16.2c0-.9-.2-1.4-1.3-1.4h-6.6v4.1h6.6c1.2 0 1.3-.5 1.3-1.6v-1.1zM400.4 78V54.4h14.7c5.1 0 7 1 7 5.6v12.3c0 4.6-1.7 5.6-7 5.6h-14.7zm14.8-16c0-1.1-.4-1.6-2-1.6h-5.9V72h5.9c1.3 0 2-.5 2-1.6V62zM424.6 78V54.4h21.5v6h-14.5v3h7.1V69h-7.1v3h14.5v6h-21.5zM463.1 78v-6.4c0-1.1-.3-1.6-1.7-1.6h-6.2v8h-6.9V54.4h15.3c5.1 0 6.3 1.4 6.3 5.6v3.7c0 2.1-.8 3.2-1.9 3.6 1.1.3 2.1 1.5 2.1 3.4V78h-7zm0-16.2c0-.9-.2-1.4-1.3-1.4h-6.6v4.1h6.6c1.2 0 1.3-.5 1.3-1.6v-1.1zM493.9 72.3c0 4.7-1.8 5.6-7 5.6h-14.8V54.4H487c5.1 0 6.8 1 6.8 5.6v2.9c0 1.9-.9 2.9-1.9 3.2 1.1.3 2.1 1.4 2.1 3.5v2.7zm-14.7-11.9v3.1h6.8c1 0 1.2-.5 1.2-1.6s-.3-1.5-1.2-1.5h-6.8zm0 8.5V72h6.9c.8 0 1.1-.5 1.1-1.5 0-1.2-.3-1.5-1.1-1.5h-6.9zM501.6 78V68L494 54.4h8.6l2.8 6.1 2.8-6.1h8.1L508.5 68v10h-6.9z"/></g><path fill="#0A565D" d="M252.1 87.9h268.5v2.5H252.1zM252.1 6.9h268.5v2.5H252.1z"/><g fill="#0A565D"><path d="M30.9 4h-2.4C5.1 4 0 8.1 0 25.3V71c0 17.2 5.1 21.3 28.5 21.3h2.4c23.5 0 28.5-4.1 28.5-21.3V43.2H28.9v16.3h6.4v12.7c0 3.4-1.5 3.7-4.5 3.7h-2.4c-3 0-4.5-.4-4.5-3.7V24.3c0-3.4 1.6-4 4.5-4h2.4c2.8 0 4.5.6 4.5 4v10.5h24v-9.5C59.4 8.1 54.3 4 30.9 4zM105.7 81.6c-.5-1-1-2-1.4-3.1-.1-.3-.1-.8 0-1.1.3-1.1.7-2.2 1.1-3.3.6-1.7 1-3.4.9-5.4-.1-2.3.6-4.6.9-6.9.2-1.4.8-2.7 1.5-4 2-3.9 3.9-7.8 5.7-11.8.2-.6.4-1.2.4-1.8-2.4-1.4-5.5-2.3-9-3.4l-9.1-2.7c-8.6-2.6-9.9-3.1-9.9-8.7v-5.2c0-3.4 1.6-3.9 4.5-3.9h1.3c3 0 4.5.5 4.5 3.9v10h24v-8.9c0-17.2-5-21.3-28.5-21.3h-1.3C67.8 4 62.8 8.1 62.8 25.3v10.4c0 12.8 6.8 15.2 16.8 18.6l10.1 3c5.8 2.1 7.9 2.1 7.9 6.9v8c0 3.2-1.5 3.9-4.5 3.9h-1.8c-3 0-4.5-.6-4.5-3.9V62h-24v9c0 17.2 5 21.3 28.5 21.3h1.8c17.2 0 24.5-2.2 27.2-10.2-4.7-.1-9.4-.2-14.1-.4-.2 0-.3 0-.5-.1zM154.8 4.5h-30.9v30.2c1.1-.9 1.9-3.4 1.2-4.7-1-1.9-1-3.6.4-5.3 1-1.2.5-2.6.4-3.5 1.1-2.3 2.1-4.2 3-6-.2-.5-.4-.9-.5-1.2.3-.2.5-.4.8-.5.5-.4 1.1-.7 1.6-1.1.1-.1.2-.1.2-.2.6.4 1.3.8 2 1.2.6-.3 1.2-.5 2-.9.1.4.2.6.2.9.3 4.9.5 9.8.8 14.7.4 6.3.8 12.6 1.1 18.9.3 4.4.5 8.9.7 13.3.1 1.1-.1 2.1 0 3.2.2 2 1.8 3 3.2 4.3 0 .8-.2 1.8.1 2.6.2.7.9 1.4 1.4 2 .7 2.3-.9 3.9-2 5.6-1.7-.6-4.5-.2-5.3 1.4-1.9.1-2.3.6-2.4 2-.7.4-1.4.7-2.1.8-1.1.2-2.2.2-3.3.2-1.2 0-2.4-.1-3.6-.1v9.6h23.8V59.3h7c2.8.1 4.3 2.6 4.3 5.7v26.8h23.8V67.2c0-11.9-3-15.5-13.4-16.6 9.9-.6 13.4-3.5 13.4-15.5v-9.9c0-16.7-4.9-20.7-27.9-20.7zm4.2 35.8c0 3.1-1.5 3.6-4.2 3.6h-7.1V20.7h7c2.7 0 4.3.4 4.3 3.5v16.1zM244.5 25.6c0-17-4.9-21.1-28.1-21.1h-30.7v87.3h30.7c23.2 0 28.1-4.1 28.1-21.1V25.6zm-23.6 46.1c0 3.2-1.6 3.9-4.5 3.9h-7V20.7h7c2.8 0 4.5.5 4.5 3.6v47.4zM129.5 66.2l6.1-5.9-8.4-1.3-3.8-7.6-3.7 7.6-8.5 1.3 6.1 5.9-1.4 8.4 7.5-4 7.5 4z"/></g></g><g><g fill="#fff"><path d="M267 38.1c-5.1 0-6.7-1-6.7-5.4v-12c0-4.3 1.6-5.4 6.7-5.4h14.2v5.8h-12.3c-1.7 0-2 .4-2 1.6v8.1c0 1.1.4 1.6 2 1.6h5.9v-2.8H269v-5.7h12.3v14.3H267zM298 38.1v-6.2c0-1-.3-1.6-1.6-1.6h-6v7.8h-6.7V15.3h14.8c5 0 6.1 1.3 6.1 5.4v3.6c0 2-.8 3.1-1.9 3.5 1 .3 2 1.4 2 3.3v7H298zm0-15.7c0-.9-.2-1.3-1.3-1.3h-6.4v4h6.4c1.2 0 1.3-.5 1.3-1.6v-1.1zM321.4 38.1l-1-3.3h-6.3l-1 3.3h-7.3l7.1-22.8h8.5l7.1 22.8h-7.1zm-4.2-16.2l-1.9 7.3h3.8l-1.9-7.3zM344 38.1l-7.7-10.9v10.9H330V15.3h6.9l7.4 11.6V15.3h6.4v22.8H344zM353.1 38.1V15.3h6.7v22.8h-6.7zM367.9 38.1v-17h-6.3v-5.8h19.3v5.8h-6.3v17h-6.7zM382.6 38.1V15.3h20.7v5.8h-14V24h6.8v5.4h-6.8v2.9h14v5.8h-20.7zM413.8 38.1v-5.8h13.8c.7 0 .9-.4.9-1.5 0-.9-.2-1.3-.9-1.3h-8.7c-3.3 0-5-1.8-5-4.8v-4.1c0-3.9 1.1-5.4 5.8-5.4H433V21h-12.1c-.7 0-.8.4-.8 1.4 0 .9.3 1.4 1 1.4h8.6c3.6 0 5.1 2 5.1 5.4v3.4c0 3.7-1.4 5.4-5.5 5.4h-15.5zM442.4 38.1v-17H436v-5.8h19.3v5.8H449v17h-6.6zM468.5 38.1l-1-3.3h-6.3l-1 3.3h-7.3l7.1-22.8h8.5l7.1 22.8h-7.1zm-4.2-16.2l-1.9 7.3h3.8l-1.9-7.3zM479.4 38.1v-17h-6.3v-5.8h19.3v5.8h-6.3v17h-6.7zM494.2 38.1V15.3h20.7v5.8h-14V24h6.8v5.4h-6.8v2.9h14v5.8h-20.7z"/></g><g fill="#fff"><path d="M273.7 74v-6.4c0-1.1-.3-1.6-1.7-1.6h-6.2v8h-6.9V50.4h15.3c5.1 0 6.3 1.4 6.3 5.6v3.7c0 2.1-.8 3.2-1.9 3.6 1.1.3 2.1 1.5 2.1 3.4V74h-7zm0-16.2c0-.9-.2-1.4-1.3-1.4h-6.6v4.1h6.6c1.2 0 1.3-.5 1.3-1.6v-1.1zM289.7 74c-5.2 0-6.9-1-6.9-5.6V56c0-4.7 1.8-5.6 6.9-5.6h9.2c5.2 0 7 .9 7 5.6v12.3c0 4.7-1.8 5.6-7 5.6h-9.2zm9.2-16c0-1.3-.4-1.6-2-1.6h-5.2c-1.5 0-2 .3-2 1.6v8.4c0 1.2.4 1.6 2 1.6h5.2c1.6 0 2-.4 2-1.6V58zM308.2 74V50.4h7V68h9.4v6h-16.4zM326.4 74V50.4h7V68h9.4v6h-16.4zM344.5 74V50.4H366v6h-14.5v3h7.1V65h-7.1v3H366v6h-21.5zM383 74v-6.4c0-1.1-.3-1.6-1.7-1.6H375v8h-6.9V50.4h15.3c5.1 0 6.3 1.4 6.3 5.6v3.7c0 2.1-.8 3.2-1.9 3.6 1.1.3 2.1 1.5 2.1 3.4V74H383zm0-16.2c0-.9-.2-1.4-1.3-1.4H375v4.1h6.6c1.2 0 1.3-.5 1.3-1.6v-1.1zM401.2 74V50.4h14.7c5.1 0 7 1 7 5.6v12.3c0 4.6-1.7 5.6-7 5.6h-14.7zM416 58c0-1.1-.4-1.6-2-1.6h-5.9V68h5.9c1.3 0 2-.5 2-1.6V58zM425.3 74V50.4h21.5v6h-14.5v3h7.1V65h-7.1v3h14.5v6h-21.5zM463.8 74v-6.4c0-1.1-.3-1.6-1.7-1.6h-6.2v8H449V50.4h15.3c5.1 0 6.3 1.4 6.3 5.6v3.7c0 2.1-.8 3.2-1.9 3.6 1.1.3 2.1 1.5 2.1 3.4V74h-7zm0-16.2c0-.9-.2-1.4-1.3-1.4h-6.6v4.1h6.6c1.2 0 1.3-.5 1.3-1.6v-1.1zM494.7 68.3c0 4.7-1.8 5.6-7 5.6h-14.8V50.4h14.8c5.1 0 6.8 1 6.8 5.6v2.9c0 1.9-.9 2.9-1.9 3.2 1.1.3 2.1 1.4 2.1 3.5v2.7zm-14.8-11.9v3.1h6.8c1 0 1.2-.5 1.2-1.6s-.3-1.5-1.2-1.5h-6.8zm0 8.5V68h6.9c.8 0 1.1-.5 1.1-1.5 0-1.2-.3-1.5-1.1-1.5h-6.9zM502.3 74V64l-7.6-13.6h8.6l2.8 6.1 2.8-6.1h8.1L509.2 64v10h-6.9z"/></g><path fill="#fff" d="M252.8 83.9h268.5v2.5H252.8zM252.8 2.9h268.5v2.5H252.8z"/><g fill="#fff"><path d="M31.6 0h-2.4C5.8 0 .7 4.1.7 21.3V67c0 17.2 5.1 21.3 28.5 21.3h2.4c23.5 0 28.5-4.1 28.5-21.3V39.2H29.7v16.3h6.4v12.7c0 3.4-1.5 3.7-4.5 3.7h-2.4c-3 0-4.5-.4-4.5-3.7V20.3c0-3.4 1.6-4 4.5-4h2.4c2.8 0 4.5.6 4.5 4v10.5h24v-9.5C60.1 4.1 55.1 0 31.6 0zM106.4 77.6c-.5-1-1-2-1.4-3.1-.1-.3-.1-.8 0-1.1.3-1.1.7-2.2 1.1-3.3.6-1.7 1-3.4.9-5.4-.1-2.3.6-4.6.9-6.9.2-1.4.8-2.7 1.5-4 2-3.9 3.9-7.8 5.7-11.8.2-.6.4-1.2.4-1.8-2.4-1.4-5.5-2.3-9-3.4l-9.1-2.7c-8.6-2.6-9.9-3.1-9.9-8.7v-5.2c0-3.4 1.6-3.9 4.5-3.9h1.3c3 0 4.5.5 4.5 3.9v10h24v-8.9c0-17.2-5-21.3-28.5-21.3H92C68.6 0 63.5 4.1 63.5 21.3v10.4c0 12.8 6.8 15.2 16.8 18.6l10.1 3c5.8 2.1 7.9 2.1 7.9 6.9v8c0 3.2-1.5 3.9-4.5 3.9H92c-3 0-4.5-.6-4.5-3.9V58h-24v9c0 17.2 5 21.3 28.5 21.3h1.8c17.2 0 24.5-2.2 27.2-10.2-4.7-.1-9.4-.2-14.1-.4-.2 0-.3 0-.5-.1zM155.6.5h-30.9v30.2c1.1-.9 1.9-3.4 1.2-4.7-1-1.9-1-3.6.4-5.3 1-1.2.5-2.6.4-3.5 1.1-2.3 2.1-4.2 3-6-.2-.5-.4-.9-.5-1.2.3-.2.5-.4.8-.5.5-.4 1.1-.7 1.6-1.1.1-.1.2-.1.2-.2.6.4 1.3.8 2 1.2.6-.3 1.2-.5 2-.9.1.4.2.6.2.9.3 4.9.5 9.8.8 14.7.4 6.3.8 12.6 1.1 18.9.3 4.4.5 8.9.7 13.3.1 1.1-.1 2.1 0 3.2.2 2 1.8 3 3.2 4.3 0 .8-.2 1.8.1 2.6.2.7.9 1.4 1.4 2 .7 2.3-.9 3.9-2 5.6-1.7-.6-4.5-.2-5.3 1.4-1.9.1-2.3.6-2.4 2-.7.4-1.4.7-2.1.8-1.1.2-2.2.2-3.3.2-1.2 0-2.4-.1-3.6-.1v9.6h23.8V55.3h7c2.8.1 4.3 2.6 4.3 5.7v26.8h23.8V63.2c0-11.9-3-15.5-13.4-16.6 9.9-.6 13.4-3.5 13.4-15.5v-9.9c0-16.7-4.9-20.7-27.9-20.7zm4.1 35.8c0 3.1-1.5 3.6-4.2 3.6h-7.1V16.7h7c2.7 0 4.3.4 4.3 3.5v16.1zM245.2 21.6c0-17-4.9-21.1-28.1-21.1h-30.7v87.3h30.7c23.2 0 28.1-4.1 28.1-21.1V21.6zm-23.6 46.1c0 3.2-1.6 3.9-4.5 3.9h-7V16.7h7c2.8 0 4.5.5 4.5 3.6v47.4zM130.2 62.2l6.1-5.9-8.4-1.3-3.8-7.6-3.7 7.6-8.4 1.3 6.1 5.9-1.5 8.4 7.5-4 7.6 4z"/></g></g></svg>