<svg version="1" xmlns="http://www.w3.org/2000/svg" viewBox="139.872 273.33 346.255 399.955" enable-background="new 139.872 273.33 346.255 399.955"><path fill-rule="evenodd" clip-rule="evenodd" fill="#fff" d="M459.234 565.936c1.12-8.945 2.24-17.892 3.362-26.837 3.36-1.12 6.724-2.238 10.085-3.356 3.85-5.824 2.403-30.413 0-33.547-1.165-31.998-22.374-28.868-43.7-40.256-27.27-14.56-65.74-29.682-84.044-53.674-12.212-16.008-20.613-53.083-23.532-70.448-1.026-6.1 4.277-23.82 3.362-26.837-3.196-10.532-18.342-29.88-30.255-33.546-7.507-5.967-30.55-3.804-43.7-3.355-6.33 5.38-14.767 2.93-23.533 6.708-15.336 6.612-32.19 19.005-47.064 26.837-7.1 1.494-2.01 2.488-6.723-3.355h-6.724c3.727 6.057 7.312 9.762 13.447 13.42-1.12 5.59-2.24 11.182-3.362 16.772-16.628-3.552-31.232-11.998-33.616-30.192h-3.362c1.36 22.31 18.45 29.143 33.617 36.9-1.022 32.22-10.81 57.58-16.81 83.868-2.632 11.535 5.552 31.097 6.723 40.256-1.12 5.59-2.24 11.183-3.362 16.773 3.912 18.762 13.538 43.832 26.895 53.675 4.684 9.523-.537 3.784 10.085 3.355v3.355h3.362c-5.85 15.59-17.39 5.9-30.255 13.42-4.714 2.754-20.117 12.124-23.532 16.772-3.91 5.32-2.048 9.216-6.723 13.42.697 40.11 16.527 35.972 36.98 53.674 18.5-2.282 36.358-12.745 47.063-23.483 1.12-3.354 2.24-6.71 3.362-10.064h20.17c17.627-6.762 26.596-21.93 33.617-40.255 18.974 1.138 41.096 4.378 57.15 10.064l3.36 16.772c-4.436 14.67-31.95 17.967-23.53 46.965 2.765 9.527 12.02 18.512 16.808 26.837 7.443 1.83 9.207 2.256 13.447 6.71 29.596-.43 42.66-8.776 57.148-23.484 1.12-3.354 2.24-6.71 3.362-10.064 6.692-4.916 27.105-3.47 36.98-6.71 14.983-4.915 27.9-16.175 40.34-23.482-2.114-17.5-14.607-35.95-26.896-43.608zm-124.383-3.354c-14.564-.68-41.015-2.544-50.425-10.064-9.738-3.124-9.592-5.135-13.447-13.42l50.426 6.71c3.542 4.034 8.61 7.404 13.447 10.064v6.71zm43.703 6.71v3.354c-4.273 2.08-1.978-1.735-3.362-3.355-5.583-4.18-4.323-1.98-6.723-10.063 5.137 1.924 5.522 2.542 13.447 3.355-2.143 6.378-.004 2.96-3.36 6.71zM149.957 297.56c2.548 3.17 4.175 3.54 6.723 6.71h10.085v-3.355l-16.808-3.354z"/></svg>