<svg version="1" xmlns="http://www.w3.org/2000/svg" viewBox="0 0 512 512" enable-background="new 0 0 512 512"><g fill="#fff"><path d="M95.587 258.325L300.41 410.16l-52.916 71.38c-3.663 4.943-10.64 5.98-15.58 2.316l-46.27-34.3c19.322-26.064 13.856-62.857-12.21-82.178-26.064-19.322-62.857-13.856-82.178 12.21l-46.27-34.3c-4.94-3.663-5.977-10.64-2.314-15.58l52.915-71.383zM469.328 182.294l-52.915 71.38L211.59 101.84l52.916-71.382c3.663-4.942 10.64-5.978 15.58-2.315l46.27 34.3c-19.322 26.064-13.856 62.856 12.21 82.178 26.064 19.323 62.857 13.857 82.178-12.208l46.27 34.3c4.94 3.664 5.978 10.64 2.314 15.582zM206.693 108.446L411.515 260.28 305.307 403.555 100.485 251.718l106.208-143.272z"/></g></svg>