<svg version="1" xmlns="http://www.w3.org/2000/svg" viewBox="95.139 259.61 431.039 460.096" enable-background="new 95.139 259.61 431.039 460.096"><g><g fill="#fff"><path d="M97.33 563.365c-3.663 4.942-2.627 11.918 2.315 15.58l46.27 34.3c19.32-26.065 56.114-31.53 82.178-12.21 26.065 19.323 31.53 56.116 12.21 82.18l46.268 34.3c4.943 3.662 11.92 2.626 15.582-2.316l52.915-71.382-204.822-151.834-52.915 71.38zM521.672 400.37l-46.27-34.298c-19.32 26.065-56.114 31.53-82.178 12.21-26.065-19.323-31.53-56.116-12.21-82.18l-46.268-34.3c-4.942-3.662-11.918-2.626-15.58 2.316l-52.916 71.38 204.822 151.836 52.915-71.38c3.663-4.944 2.626-11.92-2.315-15.583zM359.965 637.23L155.153 485.4l106.205-143.264 204.812 151.83zM97.33 563.365c-3.663 4.942-2.627 11.918 2.315 15.58l46.27 34.3c19.32-26.065 56.114-31.53 82.178-12.21 26.065 19.323 31.53 56.116 12.21 82.18l46.268 34.3c4.943 3.662 11.92 2.626 15.582-2.316l52.915-71.382-204.822-151.834-52.915 71.38zM521.672 400.37l-46.27-34.298c-19.32 26.065-56.114 31.53-82.178 12.21-26.065-19.323-31.53-56.116-12.21-82.18l-46.268-34.3c-4.942-3.662-11.918-2.626-15.58 2.316l-52.916 71.38 204.822 151.836 52.915-71.38c3.663-4.944 2.626-11.92-2.315-15.583zM359.965 637.23L155.153 485.4l106.205-143.264 204.812 151.83z"/></g><g fill="#fff"><path d="M97.33 563.365c-3.663 4.942-2.627 11.918 2.315 15.58l46.27 34.3c19.32-26.065 56.114-31.53 82.178-12.21 26.065 19.323 31.53 56.116 12.21 82.18l46.268 34.3c4.943 3.662 11.92 2.626 15.582-2.316l52.915-71.382-204.822-151.834-52.915 71.38zM521.672 400.37l-46.27-34.298c-19.32 26.065-56.114 31.53-82.178 12.21-26.065-19.323-31.53-56.116-12.21-82.18l-46.268-34.3c-4.942-3.662-11.918-2.626-15.58 2.316l-52.916 71.38 204.822 151.836 52.915-71.38c3.663-4.944 2.626-11.92-2.315-15.583zM359.965 637.23L155.153 485.4l106.205-143.264 204.812 151.83zM97.33 563.365c-3.663 4.942-2.627 11.918 2.315 15.58l46.27 34.3c19.32-26.065 56.114-31.53 82.178-12.21 26.065 19.323 31.53 56.116 12.21 82.18l46.268 34.3c4.943 3.662 11.92 2.626 15.582-2.316l52.915-71.382-204.822-151.834-52.915 71.38zM521.672 400.37l-46.27-34.298c-19.32 26.065-56.114 31.53-82.178 12.21-26.065-19.323-31.53-56.116-12.21-82.18l-46.268-34.3c-4.942-3.662-11.918-2.626-15.58 2.316l-52.916 71.38 204.822 151.836 52.915-71.38c3.663-4.944 2.626-11.92-2.315-15.583zM359.965 637.23L155.153 485.4l106.205-143.264 204.812 151.83zM97.33 563.365c-3.663 4.942-2.627 11.918 2.315 15.58l46.27 34.3c19.32-26.065 56.114-31.53 82.178-12.21 26.065 19.323 31.53 56.116 12.21 82.18l46.268 34.3c4.943 3.662 11.92 2.626 15.582-2.316l52.915-71.382-204.822-151.834-52.915 71.38zM521.672 400.37l-46.27-34.298c-19.32 26.065-56.114 31.53-82.178 12.21-26.065-19.323-31.53-56.116-12.21-82.18l-46.268-34.3c-4.942-3.662-11.918-2.626-15.58 2.316l-52.916 71.38 204.822 151.836 52.915-71.38c3.663-4.944 2.626-11.92-2.315-15.583zM359.965 637.23L155.153 485.4l106.205-143.264 204.812 151.83z"/></g></g></svg>