<svg version="1" xmlns="http://www.w3.org/2000/svg" viewBox="102.9 319.6 406.8 331" enable-background="new 102.9 319.6 406.8 331"><path fill="#fff" d="M509.7 359.4c-14.6 6.5-30.8 11.4-47.9 13 17-10.6 30.8-26.8 36.5-46.3-16.2 9.7-34.1 16.2-52.8 20.3-15.4-16.2-37.3-26.8-60.9-26.8-46.3 0-83.6 37.3-83.6 83.6 0 6.5.8 13 2.4 18.7-69.8-3.2-131.5-36.5-172.1-87.7-7.3 12.2-11.4 26.8-11.4 42.2 0 29.2 14.6 54.4 37.3 69.8-13.8-.8-26.8-4.1-38.1-10.6v.8c0 40.6 29.2 74.7 67.4 82-7.3 1.6-14.6 3.2-21.9 3.2-5.7 0-10.6-.8-15.4-1.6 10.6 33.3 41.4 57.6 77.9 58.4-28.4 22.7-64.9 35.7-103.9 35.7-6.5 0-13.8-.8-20.3-.8 37.3 23.5 81.2 37.3 128.2 37.3 154.2 0 237.8-127.4 237.8-237.8v-10.6c15.7-11.2 29.5-25.8 40.8-42.8z"/></svg>