<svg version="1" xmlns="http://www.w3.org/2000/svg" viewBox="0 0 72.493 112.033" enable-background="new 0 0 72.493 112.033"><path fill="#F5A2C6" d="M13.193 1.412c-6.24 0-11.297 5.058-11.297 11.297V99.32c0 6.24 5.058 11.3 11.297 11.3h23.61L54.354 1.41h-41.16z"/><path d="M71.563 99.322V12.71c0-6.24-5.06-11.298-11.298-11.298h-6.673l-18.165 44.4-6.692 30.858-10.092 16.936-6.228 17.015h47.85c6.24 0 11.298-5.06 11.298-11.298z"/><path fill="none" stroke="#fff" stroke-width="2.824" d="M59.782 1.412H12.71C6.47 1.412 1.413 6.47 1.413 12.71V99.32c0 6.24 5.057 11.3 11.297 11.3h47.072c6.24 0 11.3-5.06 11.3-11.3V12.71c0-6.24-5.06-11.298-11.3-11.298z"/><path d="M53.872.94H12.71C6.22.94.94 6.22.94 12.708V99.32c0 6.49 5.28 11.77 11.77 11.77h47.07c6.49 0 11.77-5.278 11.77-11.77V12.71C71.55 6.22 66.27.94 59.78.94h-5.908zM1.882 99.322V12.71C1.883 6.74 6.74 1.88 12.71 1.88h47.072c5.97 0 10.828 4.857 10.828 10.827V99.32c0 5.97-4.857 10.828-10.828 10.828H12.71c-5.97 0-10.827-4.857-10.827-10.828z"/><path fill="#fff" d="M57.257 9.348c-2.022-3.246-5.798-3.467-6.853-3.436-1.054.034-3.652.47-5.198 1.295-1.46.78-4.372 3.217-4.417 6.898-.018 1.438-.012 2.075.002 2.315-.065.09.294.443.46.74-.808-.53-3.816-2.34-5.733-1.29-2.23 1.222-2.3 2.63-3.103 3.823-.594.885-.835 1.234-1.854 1.315-1.647.13-2.14-.597-2.616-.12s2.484 4.294 5.43 3.107c.407-.164.813-.474 1.207-.822-.62.814-1.074 1.633-1.334 2.286-.616 1.543-2.05 6.69-3.176 8.746-1.125 2.058-1.944 2.985-1.944 2.985l.307.31s-1.333.72-2.868 2.778h-.31s-5.938 2.984-7.27 7.615c-1.332 4.63-.51 6.38-.51 6.38s-.31 2.776-.205 3.91c.1 1.133 1.638 1.544 2.354 1.544 0 0 .51 4.013 3.173 9.57l-.204.41.307.413.102.72h.613l.102.412-.102.515.31.41-.924.41-.207.515s-.408.827-.92 1.135c-.512.308-.615.927-.512 1.234 0 0-2.148 2.47-2.867 5.147-.717 2.675-.92 5.143-1.127 6.38-.204 1.233-1.534 6.276-1.534 6.276l-.205.512s-.716.517-.922 1.03c-.204.515-.716 1.442-.82 1.75-.1.31-1.636.926-1.432 2.985l.205 2.06s0 .615.205 1.028v.412l1.228.31.308.202-.205.413-.51.104.1.513s-2.32.102-2.457 2.678c-.102 1.952 1.332 2.157 1.332 2.157h1.535s1.23.105 2.048-1.027c0 0 1.435.104 2.254-1.13.82-1.236.205-2.37 0-2.782 0 0 2.56-.822 4.506.31 0 0-.41.31-.206.824 0 0-.92 1.03-.716 2.16.206 1.133 1.126 1.956 1.537 2.06l1.637.102s.82-.103 1.538-1.13c0 0 2.047 0 2.252-1.957l.82.825s1.33-.205 2.254-1.647l-.31-1.133s-.51-.41-1.125-.103l-.305-.62v-1.232l-.307-.104 1.432-.413-.102-.615s.718-1.545-2.356-2.573c-3.07-1.028-4.812-2.47-6.247-2.573 0 0-.203-.516-.818-.516 0 0-.102-.31.308-.512.41-.206.1-1.028.1-1.028l-.613-.312-.41-.616s.513-2.88 1.844-5.35c1.333-2.472 3.175-5.147 4.097-7.206 0 0 1.74.825 2.662-.207.922-1.027 2.766-2.674 3.483-3.497.716-.82 2.253-1.75 1.433-5.867 0 0 .614.112.908-.24.294-.357.882-1.185 1.236-1.478.352-.297.234-.77.234-.77v-.77l.176-.116s2.765.59 4.47.65c0 0 .294.59.587.53.295-.06.824.12.824.12l.412.294s1.12.296.646 1.006c-.47.708-1.53 1.537-1.763 1.89-.237.356 0 .59.293.886l-.06.473s-2.406 2.77-2.587 9.87c-.117 4.61-.94 6.737-.94 6.737l-.354.117-.294.827s-.412.53-.47 1.418c-.06.885-.707.945-.707.945s-.467.768-.467 1.3c0 .53.117 1.358.352 2.245 0 0-.235.652.177 1.123.05.057.086.1.118.13v.46h1.53s-.766.593-.766 1.123l-1.353.89s-1.157.363-.94 2.185c.177 1.477 1.764 1.654 1.764 1.654l1.12.06s1.29.294 2.056-.946c0 0 2-.237 2.117-2.01.068-1.04-.063-1.346-.186-1.422l4.126-.115-.058.534s-1.058 1.3-.823 2.187c.235.887.706 2.127 1.822 2.244 1.116.12 1.058-.06 1.058-.06s1-.117 1.648-1.182c0 0 1.41.417 1.998-1.182 0 0 2 .237 3.002-.708l-.53-1.535s-1-.12-1.354-.06l-.353-.594v-.945l.412.12v-.296h-.177v-.3l1.058-.056s.06-.238-.117-.472c0 0 .47-1.478-1.058-2.188-1.53-.707-3.292-1.184-4.53-2.068-1.233-.885-2.82-2.48-3.527-2.304 0 0 .058-1.716-.234-2.244l-.235.057s-.117-2.304 1.002-4.136c1.115-1.834 2.583-5.496 3.054-6.737 0 0 .473.296 1.062-.59 0 0 1.233.058 1.82-1.067 0 0 .06 1.244 2.884-4.43 1.057-2.124.823-3.603.823-3.782 0-.177-.414-1.123-.65-1.24l-.293-.178s-1.175-1.654-2-2.246v-1.18s-.294-1.065-.47-1.242c-.176-.178-.94-.648-.94-.648l.293-2.01s.707-2.247.765-2.484c.058-.235.354-.473.354-.473s.057-.944-.06-1.418l-.177-.354s.558-1.357 1.676-4.31l.5-.296s.253-.214.37-.804c.117-.59.806-2.506.864-3.097.06-.59.354-1.418-.47-3.957-.823-2.542-.214-2.533-.214-2.533l-.432-.187s.118-2.008 0-4.55c0 0 .707-2.777.528-5.023-.176-2.244-1.176-4.37-3.116-5.495l-.882-.532-.765-.65v-.05l-.28-.108c.1-.072.21-.154.313-.246 0 0 1.203.352 1.783.344.736-.01 1.294.18 1.832.024.534-.16.786-.637.786-.637l.193-.824s.386-.265.473-.487c.085-.222-.06-.187-.068-.36-.004-.06.23-.18.302-.452.077-.193-.002-.486-.002-.486l.088-.443.27-.66s1.16.078 1.3-.38c.14-.466-.187-.84-.265-.982-.078-.14-.31-.552-.463-1.09-.13-.457-.18-1.086-.18-1.086s.465-.685.47-1.145c0 0 1.237.062 1.38-.442.142-.504.674-1.82-1.348-5.067zm-8.3 39.306l.204.308c0 3.18-.662 5.54-.662 5.54-.408.205-.714.615-.714.615l-.562 1.28.153.104c-.305 1.284-.816 2.977-.816 2.977-.614.307-1.092 1.057-1.092 1.057-.205-.153-.543-.134-2.382-1.825-1.838-1.693-2.96-2.726-3.674-3.034-.714-.31-2.45-1.642-2.45-1.642.306-1.233.254-1.79.254-1.79l.152-.155s.204.103.358-.36c.152-.462.152-3.435.152-3.435s-.306.103.052-.155c.357-.256.867-1.077 1.277-1.335 1.375-.86 2.704-2.306 2.704-2.306s-.05.152.308-.103c.357-.257 1.225-1.437 1.225-1.437s.233.034.65.242c2.824 1.394 4.704-1.17 4.704-1.17.495 2.024.955 2.895.905 3.612-.05.72-.745 3.01-.745 3.01z"/><path d="M17.884 36.487H16.32l-1.95-4.345-1.96 4.345h-1.52l-2.08-7.27h1.636l1.377 5.54 2.533-5.54h.175l2.453 5.54 1.496-5.54h1.518l-2.114 7.27zM22.695 36.487h-1.54v-7.28h4.903v1.03h-3.363v2.027h2.907v1.04h-2.907v3.183zM31.61 36.487h-1.53v-6.24h-2.52v-1.04h6.56v1.04h-2.508v6.24zM35.278 29.216h2.778c.724 0 1.54.062 2.382.433 1.437.638 2.056 1.935 2.056 3.16 0 1.277-.63 2.574-2.103 3.244-.885.4-1.657.432-2.368.432h-2.744v-7.27zm1.517 6.26h1.05c.68 0 1.425-.06 2.138-.617.642-.495.887-1.257.887-2.01 0-.72-.245-1.43-.828-1.925-.736-.627-1.66-.67-2.37-.67h-.877v5.222zM50.636 36.487h-1.67l-.76-1.812H44.93l-.785 1.812H42.6l3.33-7.27h1.495l3.21 7.27zm-2.79-2.71l-1.112-2.717c-.045-.123-.058-.165-.127-.39-.08.236-.093.277-.127.37l-1.18 2.74h2.545zM49.85 29.08c.176 0 .328.063.455.188s.19.277.192.456c0 .18-.06.33-.186.46-.124.127-.275.19-.453.193-.18 0-.333-.062-.46-.187-.126-.126-.19-.28-.192-.457 0-.178.062-.33.187-.458.124-.128.277-.193.457-.194zm-.002.068c-.157 0-.29.06-.4.172-.11.113-.166.25-.164.412 0 .16.057.296.168.41.112.112.247.168.403.167.156-.002.288-.06.398-.173.11-.114.164-.25.164-.412 0-.16-.057-.297-.167-.41-.112-.112-.246-.168-.402-.167zm-.285.937l-.004-.724.356-.002c.147 0 .22.07.222.21 0 .105-.032.168-.097.19.06.02.09.067.09.14v.183h-.093v-.164c-.002-.077-.037-.116-.108-.115h-.027l-.247.002.002.28-.095.003zm.093-.368l.234-.002c.104 0 .155-.042.154-.126 0-.062-.01-.102-.024-.12-.016-.018-.05-.026-.102-.026l-.265.002.003.27z"/></svg>