<?xml version="1.0" encoding="utf-8"?>
<!-- Generator: Adobe Illustrator 18.0.0, SVG Export Plug-In . SVG Version: 6.00 Build 0)  -->
<!DOCTYPE svg PUBLIC "-//W3C//DTD SVG 1.0//EN" "http://www.w3.org/TR/2001/REC-SVG-20010904/DTD/svg10.dtd">
<svg version="1.0" id="Layer_1" xmlns="http://www.w3.org/2000/svg" xmlns:xlink="http://www.w3.org/1999/xlink" x="0px" y="0px"
	 viewBox="0 0 72.493 112.033" enable-background="new 0 0 72.493 112.033" xml:space="preserve">
<path fill="#F5A2C6" d="M13.193,1.412c-6.239,0-11.297,5.058-11.297,11.297v86.613c0,6.239,5.058,11.299,11.297,11.299h23.611
	L54.354,1.412H13.193z"/>
<path d="M71.563,99.322V12.709c0-6.239-5.059-11.297-11.298-11.297h-6.673l-18.165,44.4l-6.692,30.858L18.643,93.606l-6.228,17.015
	h47.851C66.504,110.621,71.563,105.561,71.563,99.322z"/>
<path fill="none" stroke="#FFFFFF" stroke-width="2.8244" d="M59.782,1.412h-5.91H48.07h-35.36c-6.241,0-11.297,5.058-11.297,11.297
	v86.613c0,6.239,5.057,11.299,11.297,11.299h11.674H36.32h23.462c6.239,0,11.299-5.06,11.299-11.299V12.709
	C71.081,6.47,66.021,1.412,59.782,1.412z"/>
<path d="M53.872,0.94H12.709c-6.489,0-11.768,5.279-11.768,11.768v86.613c0,6.49,5.279,11.77,11.768,11.77h47.072
	c6.49,0,11.77-5.279,11.77-11.77V12.709c0-6.489-5.28-11.768-11.77-11.768H53.872z M1.883,99.322V12.709
	c0-5.97,4.857-10.827,10.827-10.827h47.072c5.971,0,10.828,4.857,10.828,10.827v86.613c0,5.971-4.857,10.828-10.828,10.828H12.709
	C6.74,110.15,1.883,105.293,1.883,99.322z"/>
<path fill="#FFFFFF" d="M57.257,9.348c-2.022-3.246-5.798-3.467-6.853-3.436c-1.054,0.034-3.652,0.471-5.198,1.295
	c-1.46,0.78-4.372,3.217-4.417,6.898c-0.017,1.438-0.011,2.075,0.003,2.315c-0.065,0.09,0.294,0.443,0.461,0.741
	c-0.809-0.531-3.817-2.341-5.734-1.291c-2.229,1.222-2.3,2.63-3.102,3.823c-0.594,0.885-0.835,1.234-1.854,1.315
	c-1.647,0.131-2.14-0.597-2.616-0.12c-0.476,0.477,2.484,4.294,5.431,3.107c0.406-0.164,0.812-0.474,1.206-0.822
	c-0.62,0.814-1.074,1.633-1.334,2.286c-0.616,1.544-2.05,6.69-3.176,8.747c-1.125,2.058-1.944,2.985-1.944,2.985l0.307,0.309
	c0,0-1.333,0.72-2.868,2.778H25.26c0,0-5.938,2.984-7.271,7.615c-1.331,4.629-0.51,6.38-0.51,6.38s-0.309,2.776-0.204,3.911
	c0.1,1.132,1.638,1.543,2.354,1.543c0,0,0.512,4.013,3.174,9.57l-0.204,0.41l0.308,0.413l0.102,0.72h0.614l0.102,0.412l-0.102,0.515
	l0.309,0.411l-0.923,0.41l-0.206,0.514c0,0-0.408,0.827-0.92,1.135c-0.512,0.308-0.615,0.927-0.512,1.234
	c0,0-2.149,2.47-2.868,5.146c-0.717,2.675-0.921,5.143-1.127,6.379c-0.204,1.234-1.534,6.277-1.534,6.277l-0.205,0.512
	c0,0-0.716,0.517-0.922,1.031c-0.204,0.514-0.716,1.441-0.819,1.75c-0.102,0.309-1.637,0.925-1.433,2.984
	c0.205,2.059,0.205,2.059,0.205,2.059s0,0.616,0.205,1.029v0.412l1.228,0.309l0.307,0.203l-0.205,0.413l-0.511,0.104l0.102,0.514
	c0,0-2.322,0.102-2.458,2.678c-0.102,1.951,1.332,2.156,1.332,2.156h1.535c0,0,1.229,0.105,2.048-1.027c0,0,1.434,0.104,2.253-1.129
	c0.82-1.237,0.205-2.37,0-2.783c0,0,2.56-0.822,4.506,0.311c0,0-0.41,0.31-0.206,0.823c0,0-0.92,1.029-0.716,2.161
	c0.206,1.132,1.126,1.955,1.537,2.058l1.637,0.103c0,0,0.821-0.103,1.538-1.129c0,0,2.047,0,2.252-1.958l0.82,0.825
	c0,0,1.33-0.205,2.254-1.647l-0.309-1.133c0,0-0.512-0.41-1.126-0.103l-0.306-0.618v-1.233l-0.307-0.104l1.432-0.413l-0.102-0.616
	c0,0,0.718-1.545-2.356-2.573c-3.071-1.028-4.812-2.469-6.247-2.573c0,0-0.203-0.515-0.818-0.515c0,0-0.102-0.31,0.308-0.512
	c0.41-0.206,0.1-1.028,0.1-1.028l-0.613-0.312l-0.409-0.616c0,0,0.512-2.881,1.843-5.35c1.333-2.472,3.175-5.147,4.097-7.206
	c0,0,1.74,0.825,2.662-0.207c0.922-1.027,2.766-2.674,3.483-3.497c0.716-0.82,2.253-1.75,1.433-5.867c0,0,0.613,0.113,0.907-0.239
	c0.294-0.357,0.882-1.185,1.236-1.478c0.352-0.297,0.234-0.769,0.234-0.769v-0.771l0.176-0.116c0,0,2.765,0.589,4.469,0.649
	c0,0,0.295,0.592,0.588,0.532c0.294-0.06,0.823,0.118,0.823,0.118l0.412,0.295c0,0,1.119,0.296,0.646,1.006
	c-0.47,0.708-1.529,1.537-1.763,1.891c-0.236,0.355,0,0.589,0.294,0.885l-0.06,0.473c0,0-2.406,2.771-2.587,9.871
	c-0.117,4.609-0.941,6.736-0.941,6.736l-0.353,0.117l-0.294,0.828c0,0-0.412,0.529-0.471,1.418
	c-0.058,0.885-0.706,0.945-0.706,0.945s-0.468,0.768-0.468,1.299c0,0.532,0.117,1.359,0.352,2.246c0,0-0.235,0.652,0.177,1.123
	c0.05,0.057,0.086,0.1,0.118,0.131v0.46h1.529c0,0-0.765,0.592-0.765,1.122l-1.353,0.888c0,0-1.158,0.364-0.94,2.186
	c0.176,1.477,1.763,1.654,1.763,1.654l1.119,0.06c0,0,1.292,0.295,2.057-0.945c0,0,1.999-0.237,2.117-2.011
	c0.068-1.038-0.063-1.345-0.186-1.421l4.125-0.115l-0.058,0.534c0,0-1.058,1.299-0.823,2.186c0.235,0.887,0.706,2.127,1.822,2.244
	c1.116,0.118,1.058-0.06,1.058-0.06s0.999-0.118,1.648-1.183c0,0,1.411,0.417,1.998-1.182c0,0,2,0.237,3.001-0.708l-0.531-1.535
	c0,0-1-0.12-1.353-0.06l-0.353-0.594v-0.944l0.412,0.119v-0.295H53.79v-0.298l1.058-0.057c0,0,0.059-0.238-0.117-0.472
	c0,0,0.47-1.478-1.059-2.188c-1.529-0.707-3.292-1.184-4.529-2.068c-1.234-0.885-2.822-2.48-3.528-2.304
	c0,0,0.058-1.716-0.234-2.244l-0.236,0.057c0,0-0.117-2.304,1.002-4.136c1.115-1.833,2.583-5.495,3.054-6.736
	c0,0,0.472,0.296,1.061-0.59c0,0,1.233,0.058,1.821-1.067c0,0,0.06,1.244,2.883-4.431c1.057-2.123,0.823-3.602,0.823-3.781
	c0-0.177-0.413-1.123-0.648-1.241l-0.294-0.177c0,0-1.175-1.654-1.999-2.246v-1.18c0,0-0.295-1.065-0.47-1.242
	c-0.177-0.178-0.942-0.648-0.942-0.648l0.294-2.011c0,0,0.707-2.246,0.765-2.483c0.058-0.235,0.354-0.473,0.354-0.473
	s0.058-0.944-0.06-1.418l-0.176-0.354c0,0,0.558-1.358,1.676-4.312l0.5-0.295c0,0,0.254-0.214,0.371-0.804
	c0.117-0.59,0.806-2.506,0.864-3.097c0.06-0.59,0.354-1.418-0.47-3.957c-0.823-2.542-0.214-2.533-0.214-2.533l-0.432-0.187
	c0,0,0.118-2.008,0-4.549c0,0,0.707-2.778,0.528-5.024c-0.176-2.244-1.176-4.371-3.116-5.495l-0.882-0.532l-0.765-0.65
	c0,0,0.001-0.021,0.001-0.049l-0.282-0.109c0.102-0.072,0.21-0.154,0.314-0.246c0,0,1.203,0.352,1.783,0.344
	c0.737-0.011,1.295,0.18,1.833,0.024c0.534-0.161,0.786-0.637,0.786-0.637l0.193-0.824c0,0,0.385-0.264,0.472-0.486
	c0.085-0.222-0.06-0.187-0.068-0.359c-0.004-0.062,0.23-0.181,0.302-0.453c0.077-0.194-0.002-0.487-0.002-0.487l0.088-0.443
	l0.27-0.66c0,0,1.161,0.077,1.3-0.381c0.141-0.466-0.187-0.841-0.265-0.982c-0.078-0.141-0.311-0.552-0.463-1.089
	c-0.13-0.458-0.181-1.087-0.181-1.087s0.466-0.685,0.47-1.145c0,0,1.238,0.062,1.38-0.442C58.747,13.911,59.279,12.595,57.257,9.348
	z M48.957,48.654l0.204,0.308c0,3.181-0.663,5.54-0.663,5.54c-0.408,0.205-0.714,0.615-0.714,0.615l-0.562,1.281l0.153,0.103
	c-0.305,1.283-0.816,2.976-0.816,2.976c-0.613,0.307-1.091,1.057-1.091,1.057c-0.205-0.153-0.543-0.134-2.382-1.825
	c-1.838-1.692-2.96-2.725-3.674-3.033c-0.714-0.31-2.451-1.642-2.451-1.642c0.307-1.233,0.255-1.79,0.255-1.79l0.152-0.155
	c0,0,0.204,0.104,0.358-0.358c0.152-0.463,0.152-3.436,0.152-3.436s-0.306,0.103,0.052-0.155c0.357-0.256,0.867-1.077,1.277-1.335
	c1.375-0.861,2.704-2.306,2.704-2.306s-0.05,0.153,0.307-0.102c0.357-0.257,1.225-1.437,1.225-1.437s0.233,0.034,0.651,0.242
	c2.823,1.394,4.703-1.17,4.703-1.17c0.495,2.024,0.955,2.895,0.905,3.612C49.651,46.363,48.957,48.654,48.957,48.654z"/>
<g>
	<path d="M17.884,36.487h-1.565l-1.949-4.345l-1.961,4.345H10.89l-2.079-7.27h1.635l1.377,5.54l2.533-5.54h0.175l2.452,5.54
		l1.496-5.54h1.519L17.884,36.487z"/>
	<path d="M22.695,36.487h-1.541v-7.28h4.904v1.029h-3.363v2.028h2.907v1.041h-2.907V36.487z"/>
	<path d="M31.611,36.487h-1.53v-6.24h-2.522v-1.04h6.562v1.04h-2.509V36.487z"/>
	<path d="M35.278,29.216h2.778c0.724,0,1.54,0.062,2.382,0.433c1.437,0.639,2.056,1.936,2.056,3.161c0,1.277-0.63,2.574-2.103,3.244
		c-0.886,0.401-1.658,0.432-2.369,0.432h-2.744V29.216z M36.795,35.477h1.051c0.678,0,1.424-0.061,2.137-0.618
		c0.642-0.494,0.887-1.256,0.887-2.008c0-0.721-0.245-1.431-0.828-1.926c-0.736-0.627-1.659-0.669-2.371-0.669h-0.876V35.477z"/>
	<path d="M50.636,36.487h-1.669l-0.76-1.812h-3.279l-0.785,1.812h-1.542l3.329-7.27h1.495L50.636,36.487z M47.845,33.778
		l-1.111-2.718c-0.045-0.123-0.058-0.165-0.127-0.391c-0.081,0.237-0.093,0.278-0.127,0.371l-1.181,2.739H47.845z"/>
</g>
<g>
	<path d="M49.849,29.081c0.177-0.001,0.329,0.062,0.456,0.187c0.127,0.125,0.19,0.277,0.192,0.456c0,0.179-0.061,0.331-0.186,0.459
		c-0.125,0.128-0.276,0.192-0.454,0.194c-0.18,0-0.333-0.062-0.459-0.187c-0.127-0.126-0.192-0.279-0.193-0.457
		c-0.001-0.178,0.062-0.331,0.187-0.458C49.516,29.147,49.669,29.082,49.849,29.081z M49.848,29.148
		c-0.157,0.001-0.29,0.059-0.4,0.172c-0.11,0.113-0.166,0.25-0.164,0.412c0.001,0.16,0.057,0.296,0.168,0.409
		c0.112,0.113,0.247,0.169,0.403,0.168c0.156-0.001,0.288-0.058,0.398-0.172c0.11-0.114,0.164-0.251,0.164-0.412
		c0-0.161-0.057-0.297-0.167-0.41C50.138,29.203,50.004,29.147,49.848,29.148z M49.563,30.085l-0.004-0.724l0.357-0.003
		c0.147-0.001,0.221,0.07,0.222,0.211c0,0.104-0.032,0.167-0.097,0.189c0.059,0.02,0.089,0.067,0.089,0.14l0,0.183l-0.093,0
		l-0.001-0.165c-0.001-0.077-0.036-0.116-0.107-0.115l-0.026,0l-0.247,0.001l0.002,0.281L49.563,30.085z M49.656,29.717l0.234-0.002
		c0.104-0.001,0.155-0.042,0.154-0.126c0-0.061-0.009-0.101-0.024-0.119c-0.016-0.018-0.049-0.026-0.102-0.026l-0.265,0.002
		L49.656,29.717z"/>
</g>
</svg>
