<?xml version="1.0" encoding="utf-8"?>
<!-- Generator: Adobe Illustrator 18.0.0, SVG Export Plug-In . SVG Version: 6.00 Build 0)  -->
<!DOCTYPE svg PUBLIC "-//W3C//DTD SVG 1.0//EN" "http://www.w3.org/TR/2001/REC-SVG-20010904/DTD/svg10.dtd">
<svg version="1.0" xmlns="http://www.w3.org/2000/svg" xmlns:xlink="http://www.w3.org/1999/xlink" x="0px" y="0px"
	 viewBox="0 0 512 512" enable-background="new 0 0 512 512" xml:space="preserve">
<g id="youtube" display="none">
	<path display="inline" d="M99.26,0.5h30.735l21.041,78.974L170.591,0.5h31.003l-35.513,117.441v80.138h-30.516v-80.138L99.26,0.5z
		 M200.213,161.727c0,25.685,13.42,39.058,39.7,39.058c21.794,0,38.955-14.576,38.955-39.058V90.286
		c0-22.812-16.992-39.158-38.955-39.158c-23.864,0-39.7,15.771-39.7,39.158V161.727z M228.096,92.689
		c0-7.974,3.673-13.898,11.285-13.898c8.311,0,11.866,5.745,11.866,13.898v67.798c0,7.937-4.045,13.798-11.336,13.798
		c-7.482,0-11.815-6.125-11.815-13.798V92.689z M352.115,52.327v110.631c-3.303,4.138-10.649,10.921-15.933,10.921
		c-5.798,0-7.218-3.963-7.218-9.824V52.327h-27.097v121.823c0,14.399,4.404,26.034,18.928,26.034
		c8.199,0,19.578-4.266,31.318-18.196v16.09h27.095V52.327H352.115z M312.256,351.112c1.839,2.428,2.759,5.985,2.759,10.664v71.668
		c0,4.429-0.748,7.62-2.233,9.568c-2.846,3.724-9.004,3.555-13.203,1.43c-1.975-0.997-4.012-2.623-6.109-4.88V353.06
		c1.751-1.904,3.523-3.317,5.321-4.224C303.307,346.545,309.136,346.986,312.256,351.112z M399.126,347.967
		c-9.562,0-11.527,6.73-11.527,16.27v14.05h22.796v-14.05C410.395,354.856,408.406,347.967,399.126,347.967z M477.824,450.36
		c0,34.317-27.816,62.14-62.13,62.14H96.305c-34.313,0-62.13-27.822-62.13-62.14V293.388c0-34.321,27.816-62.138,62.13-62.138
		h319.389c34.311,0,62.13,27.816,62.13,62.138V450.36L477.824,450.36z M138.865,305.126h30.065v-27.314H79.738v27.314h30.063
		v160.852h29.063V305.126L138.865,305.126z M242.237,327.174h-25.806v105.361c-3.149,3.947-10.145,10.399-15.174,10.399
		c-5.518,0-6.871-3.77-6.871-9.355V327.174h-25.807v116.019c0,28.163,19.096,28.336,33.006,20.364
		c5.144-2.952,10.089-7.253,14.848-12.898v15.318h25.806V327.174z M341.573,360.215c0-18.83-6.259-34.794-25.16-34.794
		c-9.213,0-17.122,5.875-22.944,12.969v-60.578h-26.058v188.166h26.058v-10.664c7.194,8.969,15.062,12.419,24.51,12.419
		c17.171,0,23.594-13.337,23.594-30.514V360.215z M436.953,364.491c0-25.087-11.962-40.824-36.718-40.824
		c-23.281,0-39.196,16.728-39.196,40.824v62.305c0,24.986,12.602,42.942,37.242,42.942c27.192,0,38.672-16.193,38.672-42.942
		v-10.424h-26.558v9.646c0,12.084-0.634,19.419-11.527,19.419c-10.391,0-11.269-9.006-11.269-19.419v-26.186h49.356v-35.341H436.953
		z"/>
</g>
<g id="twitter" display="none">
	<path display="inline" d="M459.588,150.853c6.642,148.774-103.544,314.65-298.567,314.65c-59.323,0-114.536-17.513-161.021-47.522
		c55.727,6.615,111.35-8.954,155.516-43.81c-45.967-0.849-84.762-31.431-98.126-73.453c16.46,3.166,32.652,2.236,47.435-1.814
		c-50.513-10.224-85.389-56.048-84.248-105.054c14.157,7.925,30.356,12.681,47.578,13.234
		C21.369,175.602,8.128,113.391,35.644,65.861c51.81,63.994,129.213,106.108,216.509,110.518
		C236.832,110.215,286.679,46.497,354.48,46.497c30.213,0,57.511,12.841,76.671,33.404c23.93-4.741,46.408-13.549,66.704-25.673
		c-7.843,24.708-24.499,45.433-46.184,58.528c21.246-2.555,41.491-8.244,60.329-16.66
		C497.923,117.313,480.116,135.94,459.588,150.853z"/>
</g>
<g id="share" display="none">
	<path display="inline" d="M137.792,375.398C197.888,112.17,333.514,91.822,333.514,91.822V10.786L512,190.016L333.514,369.249
		V288.21C333.514,288.214,265.739,237.608,137.792,375.398z M465.385,326.626v135.229H39.126V165.169h122.528
		c18.864-24.435,19.825-18.702,43.468-39.36H0v375.405h504.51V279.546L465.385,326.626z"/>
</g>
<g id="search" display="none">
	<path display="inline" d="M0,461.778l133.429-132.363c-25.106-34.239-39.941-76.344-39.941-121.831
		C93.487,93.123,187.36,0,302.744,0C418.126,0,512,93.123,512,207.585c0,114.464-93.874,207.584-209.256,207.584
		c-43.732,0-84.373-13.383-117.984-36.233L50.624,511.998L0,461.778z M450.633,207.585c0-80.893-66.342-146.707-147.889-146.707
		c-81.551,0-147.891,65.814-147.891,146.707c0,80.895,66.34,146.711,147.891,146.711C384.29,354.296,450.633,288.48,450.633,207.585
		z"/>
</g>
<g id="rss" display="none">
	<path display="inline" d="M70.9,512c-38.001,0-68.803-31.014-68.803-69.287c0-38.261,30.804-69.275,68.803-69.275
		c37.995,0,68.797,31.014,68.797,69.275C139.697,480.986,108.897,512,70.9,512z M235.317,512
		C234,383.081,130.119,278.472,2.098,277.146V174.509C186.614,175.837,335.923,326.192,337.243,512H235.317z M407.972,512
		c-0.309-109.22-42.675-211.857-119.404-289.121C211.992,145.766,110.319,103.122,2.096,102.653V0
		c280.232,0.988,507.172,229.725,507.808,512H407.972z"/>
</g>
<g id="pinterest" display="none">
	<path display="inline" d="M295.224,370.029c-31.536,0-61.192-17.167-71.337-36.658c0,0-16.965,67.756-20.546,80.839
		c-12.643,46.207-49.844,92.451-52.727,96.238c-2.018,2.635-6.469,1.809-6.936-1.68c-0.805-5.885-10.286-64.198,0.875-111.76
		c5.602-23.884,37.562-160.254,37.562-160.254s-9.315-18.776-9.315-46.533c0-43.584,25.089-76.118,56.322-76.118
		c26.556,0,39.39,20.075,39.39,44.146c0,26.894-17.005,67.098-25.788,104.357c-7.326,31.21,15.542,56.649,46.097,56.649
		c55.32,0,92.591-71.567,92.591-156.367c0-64.44-43.089-112.697-121.514-112.697c-88.572,0-143.79,66.53-143.79,140.855
		c0,25.614,7.516,43.699,19.278,57.674c5.397,6.426,6.153,9.014,4.199,16.389c-1.426,5.416-4.619,18.44-5.969,23.604
		c-1.938,7.453-7.932,10.112-14.618,7.354c-40.789-16.768-59.805-61.772-59.805-112.354C59.196,100.177,129.159,0,267.914,0
		c111.514,0,184.89,81.239,184.89,168.477C452.798,283.842,389.108,370.029,295.224,370.029z"/>
</g>
<g id="menu" display="none">
	<g display="inline">
		<g>
			<path d="M0,458.966h512v-74.938H0V458.966z M0,293.472h512V218.53H0V293.472z M0,53.034v74.941h512V53.034H0z"/>
		</g>
	</g>
</g>
<g id="mail" display="none">
	<path display="inline" d="M0.005,70.602v370.812h0.441h510.316h1.243V70.602H0.005z M454.011,113.129L255.938,261.434
		L58.003,113.129H454.011z M43.445,155.772l106.126,79.517L43.445,339.177V155.772z M43.885,398.888L184.37,261.361l71.558,53.617
		l71.213-53.323l140.18,137.232H43.885L43.885,398.888z M468.562,339.968L361.948,235.596l106.614-79.824V339.968z"/>
</g>
<g id="instagram" display="none">
	<path display="inline" d="M452.938,0H59.067C26.45,0,0,26.439,0,59.068V452.9C0,485.543,26.45,512,59.067,512h393.872
		c32.621,0,59.062-26.457,59.061-59.1V59.068C512,26.439,485.56,0,452.938,0z M256.001,157.537c54.381,0,98.471,44.07,98.471,98.454
		c0,54.375-44.09,98.471-98.471,98.471c-54.385,0-98.466-44.096-98.466-98.471C157.535,201.609,201.615,157.537,256.001,157.537z
		 M453,433.225c0,10.862-8.882,19.775-19.776,19.775H78.776C67.885,453,59,444.088,59,433.225V217h44.642
		c-3.247,12-5.172,25.576-5.172,39.192c0,87.018,70.529,157.443,157.531,157.443s157.529-70.374,157.529-157.392
		c0-13.617-1.919-27.243-5.165-39.243H453V433.225z M453,137.845C453,148.71,444.119,158,433.226,158h-59.062
		C363.283,158,354,148.71,354,137.845V78.76C354,67.886,363.283,59,374.164,59h59.062C444.118,59,453,67.886,453,78.76V137.845z"/>
</g>
<g id="facebook" display="none">
	<path display="inline" d="M373.332,89.707c0,0-39.652,0-55.405,0c-19.558,0-23.635,8.067-23.635,28.444c0,16.959,0,49.233,0,49.233
		h79.04l-7.607,86.428h-71.433V512H191.91V254.906h-53.242v-87.522h53.242c0,0,0-12.582,0-68.922C191.91,33.779,226.259,0,302.443,0
		c12.481,0,70.888,0,70.888,0V89.707z"/>
</g>
<g id="close_1_" display="none">
	<g id="close" display="inline">
		<polygon points="453.932,110.422 401.578,58.068 256,203.646 110.422,58.068 58.068,110.422 203.646,256 58.068,401.578 
			110.422,453.932 256,308.354 401.578,453.932 453.932,401.578 308.354,256 		"/>
	</g>
</g>
<g id="chevron-up" display="none">
	<path display="inline" d="M117.666,363.329l138.333-137.485l138.335,135.245l43.289-36.742L255.999,148.673L74.377,326.592
		L117.666,363.329z"/>
</g>
<g id="chevron-right" display="none">
	<path display="inline" d="M148.672,117.667L286.157,256L150.912,394.335l36.742,43.289L363.328,256L185.409,74.378L148.672,117.667
		z"/>
</g>
<g id="chevron-left" display="none">
	<path display="inline" d="M363.328,394.335L225.843,256.002l135.245-138.335l-36.742-43.289L148.672,256.002l177.919,181.622
		L363.328,394.335z"/>
</g>
<g id="chevron-down" display="none">
	<path display="inline" d="M394.334,148.673L256.001,286.158L117.666,150.913l-43.289,36.742l181.624,175.674L437.623,185.41
		L394.334,148.673z"/>
</g>
<g id="star" display="none">
	<path display="inline" d="M0,190l194,1L258,7l60,186l194,4L354,310l56,187L253,382L94,492l61-184L0,190z"/>
</g>
<g id="ticket" display="none">
	<g display="inline">
		<path d="M42.672,329.706c-3.663,4.942-2.627,11.918,2.315,15.581l46.269,34.299c19.322-26.065,56.115-31.531,82.179-12.209
			c26.065,19.322,31.531,56.115,12.209,82.179l46.269,34.299c4.942,3.663,11.918,2.627,15.581-2.315l52.915-71.381L95.587,258.325
			L42.672,329.706z"/>
		<path d="M467.013,166.712l-46.269-34.299c-19.322,26.065-56.115,31.531-82.179,12.209C312.5,125.3,307.034,88.507,326.356,62.443
			l-46.269-34.299c-4.942-3.663-11.918-2.627-15.581,2.315l-52.915,71.381l204.822,151.835l52.915-71.381
			C472.992,177.352,471.955,170.376,467.013,166.712z"/>
		
			<rect x="128.518" y="166.827" transform="matrix(-0.8033 -0.5955 0.5955 -0.8033 309.2025 614.1082)" width="254.963" height="178.345"/>
	</g>
</g>
<g id="helmet" display="none">
	<g display="inline">
		<g>
			<path fill-rule="evenodd" clip-rule="evenodd" d="M444,153.84c-2.446-3.333-2.265-8.842-4-13l-2-2c-1-4.333-2-8.667-3-13
				c-1-0.667-2-1.333-3-2c-0.333-1.333-0.667-2.667-1-4h-2v-2c-2.848-3.724-7.318-7.223-10-11c-1.212-1.707-0.811-3.271-2-5
				c-1-0.667-2-1.333-3-2v-3l-8-10c-4.002-2.988-11.943-0.931-17-3c-0.759-0.311-11.768-4.783-12-5c-1.851-1.732-1.849-5.535-4-7
				c-4.84-3.297-13.67-3.057-20-5c-8.978-2.755-52.463-5.852-60,0c-2.731-1.223-1.914-1.343-3-4c-4.402-0.99-7.766-2.106-14-2
				c-3.768,2.82-15.55,1.383-21,3c-11.618,3.446-24.397,6.24-35,10h-4c-59.917,23.532-101.619,53.752-123,115
				c-0.667,4.333-1.333,8.667-2,13c-7.904,25.667-2.763,60.113,3,83c0.82,3.258-1.451,6.072-2,8c-1.002,3.52,0.96,13.417,2,16
				c3.131,7.774,10.759,13.248,18,17c1.667,0.333,3.333,0.667,5,1c3.683,2.56,3.034,8.545,5,13c1.844,4.178,5.542,7.578,8,11
				c8.809,12.263,19.353,21.817,26,34c2,5,4,10,6,15c-0.667,0.333-1.333,0.667-2,1c0.145,11.999,7.836,9.229,17,12
				c18.8,5.684,57.345,0.174,65-11c5.599,1.626,12.136,7.456,17,10c12.881,6.737,30.554,10.034,46,14c10.009,2.57,19.251-2.047,25-4
				h4c6.558-2.231,14.45-5.743,21-8c4.456-1.535,7.831-1.218,12-3c7.572-3.236,14.974-8.543,22-12c2.31-9.658,6.523-22.538,8-33v-1
				h-1c0.333-5.333,0.667-10.667,1-16c1.597-5.942,1.484-17.527,1-20c-3.042-15.562,5.695-31.886-4-41c1.421-4.68,5.475-7.86,7-13
				c1.476-4.976-1.117-10.215-2-13c-3.48-10.977-6.226-19.771-11-29c0.333-0.667,0.667-1.333,1-2l-2-1
				c-1.507-3.916,0.576-14.551,0-18c2.864-2.054,4.022-6.12,7-8c1.667-0.333,3.333-0.667,5-1c1.193-0.643,2.834-3.273,4-4
				c3.545-2.211,7.177-1.86,11-4c0.667-1,1.333-2,2-3c3.795-2.454,8.152-2.62,12-5c0.333-0.667,0.667-1.333,1-2
				c3.596-2.223,7.819-2.424,11-5c4.682-3.792,4.425-12.985,9-17C448.645,153.645,446.9,157.792,444,153.84z M379,372.84
				c0.208,1.809-1.105,11.676-3,14c-4.149,5.752-14.061,6.952-21,10c-8.661,3.804-18.842,8.289-29,11c-8.571,2.287-13.826-4.39-18-7
				c-3.078-1.924-5.932-2.063-9-4c-3.915-2.472-8.016-6.506-12-9c-1.333-0.333-2.667-0.667-4-1c-1.176-0.74-2.799-3.339-4-4h-3
				c-3.156-1.738-7.392-6.532-11-8c0.78-6.827,1.567-8.07,3-15c0.569-2.752-3.985-22.593-5-24h-2c0.333-1,0.667-2,1-3l-2-1v-3
				c-1.309-2.828-4.646-5.475-6-8c-1.988-3.707-3.807-11.237-5-15c-2.158-6.809-2.533-27.806,1-32c1.802-6.126,8.787-7.209,14-10
				c10.65-5.701,18.205-14.17,33-13c2.171,2.349,5.352,3.063,8,5c3.333,3.666,6.667,7.334,10,11h2
				c13.547,10.288,28.306,42.465,56,31c2.488,5.396,4.348,12.821,7,18h3c0.066,21.819-0.339,38.673-5,55
				C377.563,372.37,379,372.84,379,372.84z"/>
		</g>
	</g>
</g>
<g id="skate" display="none">
	<g display="inline">
		<g>
			<path fill-rule="evenodd" clip-rule="evenodd" d="M423.234,326.75c1.12-8.945,2.241-17.892,3.362-26.837
				c3.361-1.118,6.724-2.237,10.085-3.355c3.848-5.824,2.402-30.413,0-33.547c-1.166-31.998-22.375-28.868-43.702-40.256
				c-27.27-14.562-65.74-29.683-84.043-53.675c-12.212-16.008-20.613-53.083-23.532-70.448c-1.026-6.1,4.277-23.82,3.362-26.837
				c-3.196-10.533-18.342-29.88-30.255-33.547c-7.508-5.967-30.552-3.804-43.702-3.355c-6.328,5.38-14.766,2.93-23.532,6.709
				c-15.336,6.612-32.191,19.005-47.064,26.837c-7.099,1.494-2.01,2.488-6.723-3.355h-6.724c3.727,6.057,7.312,9.762,13.447,13.419
				c-1.12,5.591-2.241,11.183-3.362,16.773c-16.629-3.552-31.233-11.998-33.617-30.192h-3.362
				c1.361,22.311,18.45,29.143,33.617,36.901c-1.021,32.22-10.81,57.58-16.809,83.867c-2.632,11.535,5.552,31.097,6.723,40.256
				c-1.12,5.591-2.241,11.183-3.362,16.773c3.911,18.762,13.537,43.832,26.894,53.675c4.684,9.523-0.537,3.784,10.085,3.355v3.355
				h3.362c-5.849,15.591-17.389,5.901-30.255,13.419c-4.714,2.755-20.117,12.125-23.532,16.773
				c-3.909,5.321-2.048,9.216-6.723,13.419c0.697,40.11,16.527,35.973,36.979,53.674c18.5-2.282,36.359-12.745,47.064-23.483
				c1.12-3.354,2.241-6.71,3.362-10.064h20.17c17.627-6.763,26.596-21.93,33.617-40.256c18.974,1.138,41.096,4.378,57.149,10.064
				c1.12,5.591,2.241,11.183,3.362,16.773c-4.437,14.671-31.951,17.967-23.532,46.965c2.766,9.527,12.022,18.512,16.809,26.837
				c7.443,1.829,9.207,2.256,13.447,6.709c29.597-0.429,42.661-8.775,57.149-23.483c1.12-3.354,2.241-6.71,3.362-10.064
				c6.692-4.916,27.105-3.47,36.979-6.709c14.984-4.916,27.901-16.176,40.34-23.483C448.016,352.857,435.523,334.408,423.234,326.75
				z M298.851,323.395c-14.565-0.68-41.016-2.543-50.426-10.064c-9.738-3.124-9.592-5.135-13.447-13.419
				c16.807,2.236,33.619,4.473,50.426,6.709c3.542,4.034,8.61,7.404,13.447,10.064V323.395z M342.553,330.105v3.355
				c-4.273,2.079-1.978-1.735-3.362-3.355c-5.584-4.181-4.324-1.98-6.724-10.064c5.137,1.924,5.522,2.542,13.447,3.355
				C343.771,329.774,345.91,326.355,342.553,330.105z M113.957,58.377c2.548,3.169,4.175,3.54,6.723,6.709h10.085v-3.355
				C125.164,60.614,119.56,59.495,113.957,58.377z"/>
		</g>
	</g>
</g>
<g id="accordion-toggle">
	<path d="M510.02,145.716L262.764,379.235l-15.509,15.952L0,139.069l30.796-32.125L247.92,331.822L479.224,113.59L510.02,145.716z"
		/>
	<g>
	</g>
	<g>
	</g>
	<g>
	</g>
	<g>
	</g>
	<g>
	</g>
	<g>
	</g>
	<g>
	</g>
	<g>
	</g>
	<g>
	</g>
	<g>
	</g>
	<g>
	</g>
	<g>
	</g>
	<g>
	</g>
	<g>
	</g>
	<g>
	</g>
</g>
</svg>
